  0
SECTION
  2
HEADER
  9
$ACADVER
  1
AC1027
  9
$ACADMAINTVER
 70
105
  9
$DWGCODEPAGE
  3
ANSI_1252
  9
$LASTSAVEDBY
  1
ezdxf
  9
$REQUIREDVERSIONS
160
0
  9
$INSBASE
 10
0.0
 20
0.0
 30
0.0
  9
$EXTMIN
 10
1e+20
 20
1e+20
 30
1e+20
  9
$EXTMAX
 10
-1e+20
 20
-1e+20
 30
-1e+20
  9
$LIMMIN
 10
0.0
 20
0.0
  9
$LIMMAX
 10
420.0
 20
297.0
  9
$ORTHOMODE
 70
0
  9
$REGENMODE
 70
1
  9
$FILLMODE
 70
1
  9
$QTEXTMODE
 70
0
  9
$MIRRTEXT
 70
1
  9
$LTSCALE
 40
1.0
  9
$ATTMODE
 70
1
  9
$TEXTSIZE
 40
2.5
  9
$TRACEWID
 40
1.0
  9
$TEXTSTYLE
  7
Standard
  9
$CLAYER
  8
0
  9
$CELTYPE
  6
ByLayer
  9
$CECOLOR
 62
256
  9
$CELTSCALE
 40
1.0
  9
$DISPSILH
 70
0
  9
$DIMSCALE
 40
1.0
  9
$DIMASZ
 40
2.5
  9
$DIMEXO
 40
0.625
  9
$DIMDLI
 40
3.75
  9
$DIMRND
 40
0.0
  9
$DIMDLE
 40
0.0
  9
$DIMEXE
 40
1.25
  9
$DIMTP
 40
0.0
  9
$DIMTM
 40
0.0
  9
$DIMTXT
 40
2.5
  9
$DIMCEN
 40
2.5
  9
$DIMTSZ
 40
0.0
  9
$DIMTOL
 70
0
  9
$DIMLIM
 70
0
  9
$DIMTIH
 70
0
  9
$DIMTOH
 70
0
  9
$DIMSE1
 70
0
  9
$DIMSE2
 70
0
  9
$DIMTAD
 70
1
  9
$DIMZIN
 70
8
  9
$DIMBLK
  1

  9
$DIMASO
 70
1
  9
$DIMSHO
 70
1
  9
$DIMPOST
  1

  9
$DIMAPOST
  1

  9
$DIMALT
 70
0
  9
$DIMALTD
 70
3
  9
$DIMALTF
 40
0.03937007874
  9
$DIMLFAC
 40
1.0
  9
$DIMTOFL
 70
1
  9
$DIMTVP
 40
0.0
  9
$DIMTIX
 70
0
  9
$DIMSOXD
 70
0
  9
$DIMSAH
 70
0
  9
$DIMBLK1
  1

  9
$DIMBLK2
  1

  9
$DIMSTYLE
  2
ISO-25
  9
$DIMCLRD
 70
0
  9
$DIMCLRE
 70
0
  9
$DIMCLRT
 70
0
  9
$DIMTFAC
 40
1.0
  9
$DIMGAP
 40
0.625
  9
$DIMJUST
 70
0
  9
$DIMSD1
 70
0
  9
$DIMSD2
 70
0
  9
$DIMTOLJ
 70
0
  9
$DIMTZIN
 70
8
  9
$DIMALTZ
 70
0
  9
$DIMALTTZ
 70
0
  9
$DIMUPT
 70
0
  9
$DIMDEC
 70
2
  9
$DIMTDEC
 70
2
  9
$DIMALTU
 70
2
  9
$DIMALTTD
 70
3
  9
$DIMTXSTY
  7
Standard
  9
$DIMAUNIT
 70
0
  9
$DIMADEC
 70
0
  9
$DIMALTRND
 40
0.0
  9
$DIMAZIN
 70
0
  9
$DIMDSEP
 70
44
  9
$DIMATFIT
 70
3
  9
$DIMFRAC
 70
0
  9
$DIMLDRBLK
  1

  9
$DIMLUNIT
 70
2
  9
$DIMLWD
 70
-2
  9
$DIMLWE
 70
-2
  9
$DIMTMOVE
 70
0
  9
$DIMFXL
 40
1.0
  9
$DIMFXLON
 70
0
  9
$DIMJOGANG
 40
0.785398163397
  9
$DIMTFILL
 70
0
  9
$DIMTFILLCLR
 70
0
  9
$DIMARCSYM
 70
0
  9
$DIMLTYPE
  6

  9
$DIMLTEX1
  6

  9
$DIMLTEX2
  6

  9
$DIMTXTDIRECTION
 70
0
  9
$LUNITS
 70
2
  9
$LUPREC
 70
4
  9
$SKETCHINC
 40
1.0
  9
$FILLETRAD
 40
10.0
  9
$AUNITS
 70
0
  9
$AUPREC
 70
2
  9
$MENU
  1
.
  9
$ELEVATION
 40
0.0
  9
$PELEVATION
 40
0.0
  9
$THICKNESS
 40
0.0
  9
$LIMCHECK
 70
0
  9
$CHAMFERA
 40
0.0
  9
$CHAMFERB
 40
0.0
  9
$CHAMFERC
 40
0.0
  9
$CHAMFERD
 40
0.0
  9
$SKPOLY
 70
0
  9
$TDCREATE
 40
2460148.8227314814
  9
$TDUCREATE
 40
2458532.153996898
  9
$TDUPDATE
 40
2460148.8227314814
  9
$TDUUPDATE
 40
2458532.1544311
  9
$TDINDWG
 40
0.0
  9
$TDUSRTIMER
 40
0.0
  9
$USRTIMER
 70
1
  9
$ANGBASE
 50
0.0
  9
$ANGDIR
 70
0
  9
$PDMODE
 70
0
  9
$PDSIZE
 40
0.0
  9
$PLINEWID
 40
0.0
  9
$SPLFRAME
 70
0
  9
$SPLINETYPE
 70
6
  9
$SPLINESEGS
 70
8
  9
$HANDSEED
  5
1B6
  9
$SURFTAB1
 70
6
  9
$SURFTAB2
 70
6
  9
$SURFTYPE
 70
6
  9
$SURFU
 70
6
  9
$SURFV
 70
6
  9
$UCSBASE
  2

  9
$UCSNAME
  2

  9
$UCSORG
 10
0.0
 20
0.0
 30
0.0
  9
$UCSXDIR
 10
1.0
 20
0.0
 30
0.0
  9
$UCSYDIR
 10
0.0
 20
1.0
 30
0.0
  9
$UCSORTHOREF
  2

  9
$UCSORTHOVIEW
 70
0
  9
$UCSORGTOP
 10
0.0
 20
0.0
 30
0.0
  9
$UCSORGBOTTOM
 10
0.0
 20
0.0
 30
0.0
  9
$UCSORGLEFT
 10
0.0
 20
0.0
 30
0.0
  9
$UCSORGRIGHT
 10
0.0
 20
0.0
 30
0.0
  9
$UCSORGFRONT
 10
0.0
 20
0.0
 30
0.0
  9
$UCSORGBACK
 10
0.0
 20
0.0
 30
0.0
  9
$PUCSBASE
  2

  9
$PUCSNAME
  2

  9
$PUCSORG
 10
0.0
 20
0.0
 30
0.0
  9
$PUCSXDIR
 10
1.0
 20
0.0
 30
0.0
  9
$PUCSYDIR
 10
0.0
 20
1.0
 30
0.0
  9
$PUCSORTHOREF
  2

  9
$PUCSORTHOVIEW
 70
0
  9
$PUCSORGTOP
 10
0.0
 20
0.0
 30
0.0
  9
$PUCSORGBOTTOM
 10
0.0
 20
0.0
 30
0.0
  9
$PUCSORGLEFT
 10
0.0
 20
0.0
 30
0.0
  9
$PUCSORGRIGHT
 10
0.0
 20
0.0
 30
0.0
  9
$PUCSORGFRONT
 10
0.0
 20
0.0
 30
0.0
  9
$PUCSORGBACK
 10
0.0
 20
0.0
 30
0.0
  9
$USERI1
 70
0
  9
$USERI2
 70
0
  9
$USERI3
 70
0
  9
$USERI4
 70
0
  9
$USERI5
 70
0
  9
$USERR1
 40
0.0
  9
$USERR2
 40
0.0
  9
$USERR3
 40
0.0
  9
$USERR4
 40
0.0
  9
$USERR5
 40
0.0
  9
$WORLDVIEW
 70
1
  9
$SHADEDGE
 70
3
  9
$SHADEDIF
 70
70
  9
$TILEMODE
 70
1
  9
$MAXACTVP
 70
64
  9
$PINSBASE
 10
0.0
 20
0.0
 30
0.0
  9
$PLIMCHECK
 70
0
  9
$PEXTMIN
 10
1e+20
 20
1e+20
 30
1e+20
  9
$PEXTMAX
 10
-1e+20
 20
-1e+20
 30
-1e+20
  9
$PLIMMIN
 10
0.0
 20
0.0
  9
$PLIMMAX
 10
420.0
 20
297.0
  9
$UNITMODE
 70
0
  9
$VISRETAIN
 70
1
  9
$PLINEGEN
 70
0
  9
$PSLTSCALE
 70
1
  9
$TREEDEPTH
 70
3020
  9
$CMLSTYLE
  2
Standard
  9
$CMLJUST
 70
0
  9
$CMLSCALE
 40
20.0
  9
$PROXYGRAPHICS
 70
1
  9
$MEASUREMENT
 70
1
  9
$CELWEIGHT
370
-1
  9
$ENDCAPS
280
0
  9
$JOINSTYLE
280
0
  9
$LWDISPLAY
290
0
  9
$INSUNITS
 70
4
  9
$HYPERLINKBASE
  1

  9
$STYLESHEET
  1

  9
$XEDIT
290
1
  9
$CEPSNTYPE
380
0
  9
$PSTYLEMODE
290
1
  9
$FINGERPRINTGUID
  2
{7CFEEDB3-38A4-4124-9B18-64BBC27BD9FB}
  9
$VERSIONGUID
  2
{6762DAD6-40AF-40FD-8078-07808EA78B86}
  9
$EXTNAMES
290
1
  9
$PSVPSCALE
 40
0.0
  9
$OLESTARTUP
290
0
  9
$SORTENTS
280
127
  9
$INDEXCTL
280
0
  9
$HIDETEXT
280
1
  9
$XCLIPFRAME
280
0
  9
$HALOGAP
280
0
  9
$OBSCOLOR
 70
257
  9
$OBSLTYPE
280
0
  9
$INTERSECTIONDISPLAY
280
0
  9
$INTERSECTIONCOLOR
 70
257
  9
$DIMASSOC
280
2
  9
$PROJECTNAME
  1

  9
$CAMERADISPLAY
290
0
  9
$LENSLENGTH
 40
50.0
  9
$CAMERAHEIGHT
 40
0.0
  9
$STEPSPERSEC
 40
24.0
  9
$STEPSIZE
 40
100.0
  9
$3DDWFPREC
 40
2.0
  9
$PSOLWIDTH
 40
0.005
  9
$PSOLHEIGHT
 40
0.08
  9
$LOFTANG1
 40
1.570796326795
  9
$LOFTANG2
 40
1.570796326795
  9
$LOFTMAG1
 40
0.0
  9
$LOFTMAG2
 40
0.0
  9
$LOFTPARAM
 70
7
  9
$LOFTNORMALS
280
1
  9
$LATITUDE
 40
37.795
  9
$LONGITUDE
 40
-122.394
  9
$NORTHDIRECTION
 40
0.0
  9
$TIMEZONE
 70
-8000
  9
$LIGHTGLYPHDISPLAY
280
1
  9
$TILEMODELIGHTSYNCH
280
1
  9
$CMATERIAL
347
20
  9
$SOLIDHIST
280
0
  9
$SHOWHIST
280
1
  9
$DWFFRAME
280
2
  9
$DGNFRAME
280
2
  9
$REALWORLDSCALE
290
1
  9
$INTERFERECOLOR
 62
256
  9
$CSHADOW
280
0
  9
$SHADOWPLANELOCATION
 40
0.0
  0
ENDSEC
  0
SECTION
  2
CLASSES
  0
CLASS
  1
ACDBDICTIONARYWDFLT
  2
AcDbDictionaryWithDefault
  3
ObjectDBX Classes
 90
0
 91
0
280
0
281
0
  0
CLASS
  1
SUN
  2
AcDbSun
  3
SCENEOE
 90
1153
 91
0
280
0
281
0
  0
CLASS
  1
VISUALSTYLE
  2
AcDbVisualStyle
  3
ObjectDBX Classes
 90
4095
 91
0
280
0
281
0
  0
CLASS
  1
MATERIAL
  2
AcDbMaterial
  3
ObjectDBX Classes
 90
1153
 91
0
280
0
281
0
  0
CLASS
  1
SCALE
  2
AcDbScale
  3
ObjectDBX Classes
 90
1153
 91
0
280
0
281
0
  0
CLASS
  1
TABLESTYLE
  2
AcDbTableStyle
  3
ObjectDBX Classes
 90
4095
 91
0
280
0
281
0
  0
CLASS
  1
MLEADERSTYLE
  2
AcDbMLeaderStyle
  3
ACDB_MLEADERSTYLE_CLASS
 90
4095
 91
0
280
0
281
0
  0
CLASS
  1
DICTIONARYVAR
  2
AcDbDictionaryVar
  3
ObjectDBX Classes
 90
0
 91
0
280
0
281
0
  0
CLASS
  1
CELLSTYLEMAP
  2
AcDbCellStyleMap
  3
ObjectDBX Classes
 90
1152
 91
0
280
0
281
0
  0
CLASS
  1
MENTALRAYRENDERSETTINGS
  2
AcDbMentalRayRenderSettings
  3
SCENEOE
 90
1024
 91
0
280
0
281
0
  0
CLASS
  1
ACDBDETAILVIEWSTYLE
  2
AcDbDetailViewStyle
  3
ObjectDBX Classes
 90
1025
 91
0
280
0
281
0
  0
CLASS
  1
ACDBSECTIONVIEWSTYLE
  2
AcDbSectionViewStyle
  3
ObjectDBX Classes
 90
1025
 91
0
280
0
281
0
  0
CLASS
  1
RASTERVARIABLES
  2
AcDbRasterVariables
  3
ISM
 90
0
 91
0
280
0
281
0
  0
CLASS
  1
LAYOUT
  2
AcDbLayout
  3
ObjectDBX Classes
 90
0
 91
0
280
0
281
0
  0
CLASS
  1
ACDBPLACEHOLDER
  2
AcDbPlaceHolder
  3
ObjectDBX Classes
 90
0
 91
0
280
0
281
0
  0
ENDSEC
  0
SECTION
  2
TABLES
  0
TABLE
  2
VPORT
  5
8
330
0
100
AcDbSymbolTable
 70
1
  0
VPORT
  5
1B2
330
8
100
AcDbSymbolTableRecord
100
AcDbViewportTableRecord
  2
*Active
 70
0
 10
0.0
 20
0.0
 11
1.0
 21
1.0
 12
19.75938044828952
 22
-18.433717079954363
 13
0.0
 23
0.0
 14
0.5
 24
0.5
 15
0.5
 25
0.5
 16
0.0
 26
0.0
 36
1.0
 17
0.0
 27
0.0
 37
0.0
 40
181.95134330811356
 41
1.34
 42
50.0
 43
0.0
 44
0.0
 50
0.0
 51
0.0
 71
0
 72
1000
 73
1
 74
3
 75
0
 76
0
 77
0
 78
0
281
0
 65
1
110
0.0
120
0.0
130
0.0
111
1.0
121
0.0
131
0.0
112
0.0
122
1.0
132
0.0
 79
0
146
0.0
  0
ENDTAB
  0
TABLE
  2
LTYPE
  5
2
330
0
100
AcDbSymbolTable
 70
3
  0
LTYPE
  5
24
330
2
100
AcDbSymbolTableRecord
100
AcDbLinetypeTableRecord
  2
ByBlock
 70
0
  3

 72
65
 73
0
 40
0.0
  0
LTYPE
  5
25
330
2
100
AcDbSymbolTableRecord
100
AcDbLinetypeTableRecord
  2
ByLayer
 70
0
  3

 72
65
 73
0
 40
0.0
  0
LTYPE
  5
26
330
2
100
AcDbSymbolTableRecord
100
AcDbLinetypeTableRecord
  2
Continuous
 70
0
  3

 72
65
 73
0
 40
0.0
  0
ENDTAB
  0
TABLE
  2
LAYER
  5
1
330
0
100
AcDbSymbolTable
 70
2
  0
LAYER
  5
27
330
1
100
AcDbSymbolTableRecord
100
AcDbLayerTableRecord
  2
0
 70
0
 62
7
  6
Continuous
370
-3
390
13
347
21
  0
LAYER
  5
28
330
1
100
AcDbSymbolTableRecord
100
AcDbLayerTableRecord
  2
Defpoints
 70
0
 62
7
  6
Continuous
290
0
370
-3
390
13
347
21
  0
ENDTAB
  0
TABLE
  2
STYLE
  5
5
330
0
100
AcDbSymbolTable
 70
1
  0
STYLE
  5
29
330
5
100
AcDbSymbolTableRecord
100
AcDbTextStyleTableRecord
  2
Standard
 70
0
 40
0.0
 41
1.0
 50
0.0
 71
0
 42
2.5
  3
txt
  4

  0
ENDTAB
  0
TABLE
  2
VIEW
  5
7
330
0
100
AcDbSymbolTable
 70
0
  0
ENDTAB
  0
TABLE
  2
UCS
  5
6
330
0
100
AcDbSymbolTable
 70
0
  0
ENDTAB
  0
TABLE
  2
APPID
  5
3
330
0
100
AcDbSymbolTable
 70
3
  0
APPID
  5
2A
330
3
100
AcDbSymbolTableRecord
100
AcDbRegAppTableRecord
  2
ACAD
 70
0
  0
APPID
  5
1B3
330
3
100
AcDbSymbolTableRecord
100
AcDbRegAppTableRecord
  2
HATCHBACKGROUNDCOLOR
 70
0
  0
APPID
  5
1B4
330
3
100
AcDbSymbolTableRecord
100
AcDbRegAppTableRecord
  2
EZDXF
 70
0
  0
ENDTAB
  0
TABLE
  2
DIMSTYLE
  5
4
330
0
100
AcDbSymbolTable
 70
1
100
AcDbDimStyleTable
  0
DIMSTYLE
105
2B
330
4
100
AcDbSymbolTableRecord
100
AcDbDimStyleTableRecord
  2
Standard
 70
0
 40
1.0
 41
2.5
 42
0.625
 43
3.75
 44
1.25
 45
0.0
 46
0.0
 47
0.0
 48
0.0
 49
2.5
140
2.5
141
2.5
142
0.0
143
0.03937007874
144
1.0
145
0.0
146
1.0
147
0.625
148
0.0
 69
0
 70
0
 71
0
 72
0
 73
0
 74
0
 75
0
 76
0
 77
1
 78
8
 79
3
170
0
171
3
172
1
173
0
174
0
175
0
176
0
177
0
178
0
179
2
271
2
272
2
273
2
274
3
275
0
276
0
277
2
278
44
279
0
280
0
281
0
282
0
283
0
284
8
285
0
286
0
288
0
289
3
290
0
371
-2
372
-2
  0
ENDTAB
  0
TABLE
  2
BLOCK_RECORD
  5
9
330
0
100
AcDbSymbolTable
 70
2
  0
BLOCK_RECORD
  5
17
330
9
100
AcDbSymbolTableRecord
100
AcDbBlockTableRecord
  2
*Model_Space
340
1A
 70
0
280
1
281
0
  0
BLOCK_RECORD
  5
1B
330
9
100
AcDbSymbolTableRecord
100
AcDbBlockTableRecord
  2
*Paper_Space
340
1E
 70
0
280
1
281
0
  0
ENDTAB
  0
ENDSEC
  0
SECTION
  2
BLOCKS
  0
BLOCK
  5
18
330
17
100
AcDbEntity
  8
0
100
AcDbBlockBegin
  2
*Model_Space
 70
0
 10
0.0
 20
0.0
 30
0.0
  3
*Model_Space
  1

  0
ENDBLK
  5
19
330
17
100
AcDbEntity
  8
0
100
AcDbBlockEnd
  0
BLOCK
  5
1C
330
1B
100
AcDbEntity
  8
0
100
AcDbBlockBegin
  2
*Paper_Space
 70
0
 10
0.0
 20
0.0
 30
0.0
  3
*Paper_Space
  1

  0
ENDBLK
  5
1D
330
1B
100
AcDbEntity
  8
0
100
AcDbBlockEnd
  0
ENDSEC
  0
SECTION
  2
ENTITIES
  0
LINE
  5
2F
330
17
100
AcDbEntity
  8
0
100
AcDbLine
 10
43.047856958483095
 20
-95.79471920928808
 30
-5.0
 11
48.93053865325382
 21
-103.8915359378567
 31
-5.0
  0
LINE
  5
30
330
17
100
AcDbEntity
  8
0
100
AcDbLine
 10
44.68206235461419
 20
-91.36074055362852
 30
-5.0
 11
43.04785695848308
 21
-95.79471920928808
 31
-5.0
  0
LINE
  5
31
330
17
100
AcDbEntity
  8
0
100
AcDbLine
 10
34.752316350851444
 20
-80.33264037277445
 30
-5.0
 11
44.682062354613976
 21
-91.36074055362873
 31
-5.0
  0
LINE
  5
32
330
17
100
AcDbEntity
  8
0
100
AcDbLine
 10
34.752316350851444
 20
-80.33264037277445
 30
-5.0
 11
26.879888236567744
 21
-73.9485294813195
 31
-5.0
  0
LINE
  5
33
330
17
100
AcDbEntity
  8
0
100
AcDbLine
 10
26.879888236567744
 20
-73.94852948131951
 30
-5.0
 11
6.336288052795242
 21
-69.72195457410245
 31
-5.0
  0
LINE
  5
34
330
17
100
AcDbEntity
  8
0
100
AcDbLine
 10
-15.638525797338055
 20
-69.72195457410245
 30
-5.0
 11
6.3362880527952425
 21
-69.72195457410245
 31
-5.0
  0
LINE
  5
35
330
17
100
AcDbEntity
  8
0
100
AcDbLine
 10
-15.638525797338051
 20
-69.72195457410244
 30
-5.0
 11
-16.78165887283903
 21
-67.17195652746744
 31
-5.0
  0
LINE
  5
36
330
17
100
AcDbEntity
  8
0
100
AcDbLine
 10
-16.781658872839028
 20
-67.17195652746744
 30
-5.0
 11
-18.397182134425005
 21
-52.210561336530084
 31
-5.0
  0
LINE
  5
37
330
17
100
AcDbEntity
  8
0
100
AcDbLine
 10
-18.397182134425
 20
-52.21056133653007
 30
-5.0
 11
-53.34794172587514
 21
-52.21056133653007
 31
-5.0
  0
LINE
  5
38
330
17
100
AcDbEntity
  8
0
100
AcDbLine
 10
-56.05234329846879
 20
-49.237910044353356
 30
-5.0
 11
-53.34794172587513
 21
-52.21056133653008
 31
-5.0
  0
LINE
  5
39
330
17
100
AcDbEntity
  8
0
100
AcDbLine
 10
-62.793577449720864
 20
-41.39615860405769
 30
-5.0
 11
-56.0523432984688
 21
-49.23791004435336
 31
-5.0
  0
LINE
  5
3A
330
17
100
AcDbEntity
  8
0
100
AcDbLine
 10
-63.00428554575001
 20
-40.7483635188703
 30
-5.0
 11
-62.793577449720864
 21
-41.39615860405769
 31
-5.0
  0
LINE
  5
3B
330
17
100
AcDbEntity
  8
0
100
AcDbLine
 10
-62.79357744972141
 20
-31.725725959228733
 30
-5.0
 11
-63.00428554575113
 21
-40.74836351887026
 31
-5.0
  0
LINE
  5
3C
330
17
100
AcDbEntity
  8
0
100
AcDbLine
 10
-61.98783672975744
 20
-22.780005141868646
 30
-5.0
 11
-62.793577449720836
 21
-31.725725959228747
 31
-5.0
  0
LINE
  5
3D
330
17
100
AcDbEntity
  8
0
100
AcDbLine
 10
-61.987836729757475
 20
-22.780005141868642
 30
-5.0
 11
-61.629471163764265
 21
-14.95
 31
-5.0
  0
LINE
  5
3E
330
17
100
AcDbEntity
  8
0
100
AcDbLine
 10
-61.629471163764265
 20
2.9499999999999993
 30
-5.0
 11
-61.629471163764265
 21
-14.95
 31
-5.0
  0
LINE
  5
3F
330
17
100
AcDbEntity
  8
0
100
AcDbLine
 10
-61.62947116376427
 20
2.9499999999999984
 30
-5.0
 11
-61.98783672975746
 21
10.780005141868644
 31
-5.0
  0
LINE
  5
40
330
17
100
AcDbEntity
  8
0
100
AcDbLine
 10
-61.98783672975745
 20
10.780005141868646
 30
-5.0
 11
-62.79357744972085
 21
19.72572595922885
 31
-5.0
  0
LINE
  5
41
330
17
100
AcDbEntity
  8
0
100
AcDbLine
 10
-63.002029792900835
 20
28.651770930518055
 30
-4.999999999999999
 11
-62.79357744972087
 21
19.725725959228846
 31
-4.999999999999999
  0
LINE
  5
42
330
17
100
AcDbEntity
  8
0
100
AcDbLine
 10
-63.2850060741412
 20
36.49022621733761
 30
-5.0
 11
-63.002029792900835
 21
28.651770930518058
 31
-5.0
  0
LINE
  5
43
330
17
100
AcDbEntity
  8
0
100
AcDbLine
 10
-63.28500607414153
 20
36.49022621733758
 30
-5.0
 11
-64.06940649712591
 21
52.07868746584066
 31
-5.0
  0
LINE
  5
44
330
17
100
AcDbEntity
  8
0
100
AcDbLine
 10
-63.684463377899434
 20
54.628685512475656
 30
-5.0
 11
-64.0694064971259
 21
52.07868746584066
 31
-5.0
  0
LINE
  5
45
330
17
100
AcDbEntity
  8
0
100
AcDbLine
 10
-54.678180598404595
 20
63.721954574102455
 30
-5.0
 11
-63.684463377899455
 21
54.62868551247566
 31
-5.0
  0
LINE
  5
46
330
17
100
AcDbEntity
  8
0
100
AcDbLine
 10
-15.656800558416016
 20
63.72195457410245
 30
-5.0
 11
-54.67818059840458
 21
63.72195457410245
 31
-5.0
  0
LINE
  5
47
330
17
100
AcDbEntity
  8
0
100
AcDbLine
 10
-11.050377850606921
 20
69.72195457410244
 30
-5.0
 11
-15.656800558416014
 21
63.72195457410244
 31
-5.0
  0
LINE
  5
48
330
17
100
AcDbEntity
  8
0
100
AcDbLine
 10
-11.050377850606925
 20
69.72195457410245
 30
-5.0
 11
6.336288052795242
 21
69.72195457410245
 31
-5.0
  0
LINE
  5
49
330
17
100
AcDbEntity
  8
0
100
AcDbLine
 10
6.3362880527952505
 20
69.72195457410244
 30
-5.0
 11
10.73708577370002
 21
72.54195457410243
 31
-5.0
  0
LINE
  5
4A
330
17
100
AcDbEntity
  8
0
100
AcDbLine
 10
27.745524035170778
 20
72.54195457410242
 30
-5.0
 11
10.73708577370001
 21
72.54195457410242
 31
-5.0
  0
LINE
  5
4B
330
17
100
AcDbEntity
  8
0
100
AcDbLine
 10
29.712769491285858
 20
69.72195457410244
 30
-5.0
 11
27.745524035170767
 21
72.54195457410243
 31
-5.0
  0
LINE
  5
4C
330
17
100
AcDbEntity
  8
0
100
AcDbLine
 10
64.62130860324176
 20
69.72195457410244
 30
-5.0
 11
29.712769491285865
 21
69.72195457410244
 31
-5.0
  0
LINE
  5
4D
330
17
100
AcDbEntity
  8
0
100
AcDbLine
 10
64.62130860324176
 20
69.72195457410244
 30
-5.000000000000002
 11
85.7703160698195
 21
63.63538997642098
 31
-5.000000000000002
  0
LINE
  5
4E
330
17
100
AcDbEntity
  8
0
100
AcDbLine
 10
95.27031606981949
 20
53.13538997642098
 30
-5.0
 11
85.77031606981949
 21
63.63538997642098
 31
-5.0
  0
LINE
  5
4F
330
17
100
AcDbEntity
  8
0
100
AcDbLine
 10
95.27031606981947
 20
53.13538997642098
 30
-5.0
 11
99.77030917559273
 21
37.54692872791791
 31
-5.0
  0
LINE
  5
50
330
17
100
AcDbEntity
  8
0
100
AcDbLine
 10
99.77030917559276
 20
37.546928727917916
 30
-5.0
 11
100.880227304937
 21
32.18776079279528
 31
-5.0
  0
LINE
  5
51
330
17
100
AcDbEntity
  8
0
100
AcDbLine
 10
100.880227304937
 20
32.18776079279528
 30
-5.0
 11
103.20959500412505
 21
14.80109488939312
 31
-5.0
  0
LINE
  5
52
330
17
100
AcDbEntity
  8
0
100
AcDbLine
 10
103.58816739370495
 20
9.05
 30
-5.0
 11
103.20959500412502
 21
14.801094889393116
 31
-5.0
  0
LINE
  5
53
330
17
100
AcDbEntity
  8
0
100
AcDbLine
 10
103.58816739370495
 20
9.05
 30
-5.0
 11
103.58816739370495
 21
-9.05
 31
-5.0
  0
LINE
  5
54
330
17
100
AcDbEntity
  8
0
100
AcDbLine
 10
103.58816739370496
 20
-9.05
 30
-5.0
 11
103.20959500412503
 21
-14.801094889393118
 31
-5.0
  0
LINE
  5
55
330
17
100
AcDbEntity
  8
0
100
AcDbLine
 10
103.20959500412503
 20
-14.801094889393113
 30
-5.0000000000000036
 11
100.88022730493698
 21
-20.18776079279528
 31
-5.0000000000000036
  0
LINE
  5
56
330
17
100
AcDbEntity
  8
0
100
AcDbLine
 10
88.38272697490183
 20
-39.941212418336086
 30
-5.0
 11
100.88022730493698
 21
-20.187760792795284
 31
-5.0
  0
LINE
  5
57
330
17
100
AcDbEntity
  8
0
100
AcDbLine
 10
95.886547159627
 20
-46.23766516775915
 30
-5.0
 11
88.38272697490184
 21
-39.94121241833609
 31
-5.0
  0
LINE
  5
58
330
17
100
AcDbEntity
  8
0
100
AcDbLine
 10
95.88654715962669
 20
-46.237665167759495
 30
-5.0
 11
97.71658208815235
 21
-48.46915311257764
 31
-5.0
  0
LINE
  5
59
330
17
100
AcDbEntity
  8
0
100
AcDbLine
 10
97.71658208815239
 20
-48.46915311257763
 30
-5.0
 11
93.78968257777956
 21
-57.99870270728861
 31
-5.0
  0
LINE
  5
5A
330
17
100
AcDbEntity
  8
0
100
AcDbLine
 10
93.78968257777956
 20
-57.9987027072886
 30
-5.0
 11
99.83047931418145
 21
-65.73056994182572
 31
-5.0
  0
LINE
  5
5B
330
17
100
AcDbEntity
  8
0
100
AcDbLine
 10
103.19944708305667
 20
-72.42749111422484
 30
-5.0
 11
99.83047931418156
 21
-65.73056994182562
 31
-5.0
  0
LINE
  5
5C
330
17
100
AcDbEntity
  8
0
100
AcDbLine
 10
103.19944708305668
 20
-72.42749111422484
 30
-5.0
 11
102.85848688954712
 21
-75.23949013807916
 31
-5.0
  0
LINE
  5
5D
330
17
100
AcDbEntity
  8
0
100
AcDbLine
 10
102.85848688954712
 20
-75.23949013807915
 30
-5.0
 11
101.5083846452448
 21
-83.97096999625374
 31
-5.0
  0
LINE
  5
5E
330
17
100
AcDbEntity
  8
0
100
AcDbLine
 10
87.49614633460487
 20
-95.47844234448176
 30
-5.0
 11
101.50838464524477
 21
-83.97096999625373
 31
-5.0
  0
LINE
  5
5F
330
17
100
AcDbEntity
  8
0
100
AcDbLine
 10
85.14031082254063
 20
-96.54061215825843
 30
-5.0
 11
87.4961463346049
 21
-95.4784423444818
 31
-5.0
  0
LINE
  5
60
330
17
100
AcDbEntity
  8
0
100
AcDbLine
 10
85.14031082254061
 20
-96.54061215825838
 30
-5.0
 11
82.91112954079978
 21
-96.50222374155283
 31
-5.0
  0
LINE
  5
61
330
17
100
AcDbEntity
  8
0
100
AcDbLine
 10
82.9111295407998
 20
-96.50222374155285
 30
-5.0
 11
69.02649976017629
 21
-108.77873089765407
 31
-5.0
  0
LINE
  5
62
330
17
100
AcDbEntity
  8
0
100
AcDbLine
 10
55.8580826912672
 20
-109.33388988693397
 30
-5.0
 11
69.0264997601763
 21
-108.77873089765407
 31
-5.0
  0
LINE
  5
63
330
17
100
AcDbEntity
  8
0
100
AcDbLine
 10
55.8580826912672
 20
-109.33388988693393
 30
-5.0
 11
54.67709656846628
 21
-109.4093887340111
 31
-5.0
  0
LINE
  5
64
330
17
100
AcDbEntity
  8
0
100
AcDbLine
 10
54.67709656846628
 20
-109.40938873401115
 30
-5.0
 11
54.18140054106132
 21
-109.1651129672941
 31
-5.0
  0
LINE
  5
65
330
17
100
AcDbEntity
  8
0
100
AcDbLine
 10
54.181400541061336
 20
-109.1651129672941
 30
-5.0
 11
48.93053865325356
 21
-103.89153593785689
 31
-5.0
  0
CIRCLE
  5
66
330
17
100
AcDbEntity
  8
0
100
AcDbCircle
 10
52.14849438485114
 20
-95.13776079279526
 30
-5.0
 40
3.0
  0
CIRCLE
  5
67
330
17
100
AcDbEntity
  8
0
100
AcDbCircle
 10
-1.4287652517031422
 20
-63.83298032466794
 30
-5.0
 40
3.0
  0
CIRCLE
  5
68
330
17
100
AcDbEntity
  8
0
100
AcDbCircle
 10
-56.515960285633994
 20
46.79115360697827
 30
-5.0
 40
3.0
  0
CIRCLE
  5
69
330
17
100
AcDbEntity
  8
0
100
AcDbCircle
 10
-1.525822239169305
 20
64.48249954335557
 30
-5.0
 40
3.0
  0
CIRCLE
  5
6A
330
17
100
AcDbEntity
  8
0
100
AcDbCircle
 10
97.494911154531
 20
-11.444427841094202
 30
-5.0
 40
3.0
  0
CIRCLE
  5
6B
330
17
100
AcDbEntity
  8
0
100
AcDbCircle
 10
92.97031262270607
 20
45.291159352169444
 30
-5.0
 40
3.0
  0
CIRCLE
  5
6C
330
17
100
AcDbEntity
  8
0
100
AcDbCircle
 10
-55.59666774605498
 20
-33.326710313668265
 30
-5.0
 40
3.0
  0
LINE
  5
6D
330
17
100
AcDbEntity
  8
0
100
AcDbLine
 10
43.047856958483095
 20
-95.79471920928808
 30
-5.0
 11
43.047856958483095
 21
-95.79471920928808
 31
0.0
  0
LINE
  5
6E
330
17
100
AcDbEntity
  8
0
100
AcDbLine
 10
48.93053865325357
 20
-103.89153593785687
 30
-5.0
 11
48.93053865325357
 21
-103.89153593785687
 31
0.0
  0
LINE
  5
6F
330
17
100
AcDbEntity
  8
0
100
AcDbLine
 10
43.047856958483095
 20
-95.79471920928808
 30
0.0
 11
48.93053865325382
 21
-103.8915359378567
 31
0.0
  0
LINE
  5
70
330
17
100
AcDbEntity
  8
0
100
AcDbLine
 10
44.682062354614196
 20
-91.36074055362852
 30
-5.0
 11
44.682062354614196
 21
-91.36074055362852
 31
0.0
  0
LINE
  5
71
330
17
100
AcDbEntity
  8
0
100
AcDbLine
 10
44.68206235461419
 20
-91.36074055362852
 30
0.0
 11
43.04785695848308
 21
-95.79471920928808
 31
0.0
  0
LINE
  5
72
330
17
100
AcDbEntity
  8
0
100
AcDbLine
 10
54.18140054106133
 20
-109.16511296729409
 30
-5.0
 11
54.18140054106133
 21
-109.16511296729409
 31
0.0
  0
LINE
  5
73
330
17
100
AcDbEntity
  8
0
100
AcDbLine
 10
54.181400541061336
 20
-109.1651129672941
 30
0.0
 11
48.93053865325356
 21
-103.89153593785689
 31
0.0
  0
LINE
  5
74
330
17
100
AcDbEntity
  8
0
100
AcDbLine
 10
34.752316350851444
 20
-80.33264037277445
 30
-5.0
 11
34.752316350851444
 21
-80.33264037277445
 31
0.0
  0
LINE
  5
75
330
17
100
AcDbEntity
  8
0
100
AcDbLine
 10
34.752316350851444
 20
-80.33264037277445
 30
0.0
 11
44.682062354613976
 21
-91.36074055362873
 31
0.0
  0
LINE
  5
76
330
17
100
AcDbEntity
  8
0
100
AcDbLine
 10
54.67709656846628
 20
-109.40938873401113
 30
-5.0
 11
54.67709656846628
 21
-109.40938873401113
 31
0.0
  0
LINE
  5
77
330
17
100
AcDbEntity
  8
0
100
AcDbLine
 10
54.67709656846628
 20
-109.40938873401115
 30
0.0
 11
54.18140054106132
 21
-109.1651129672941
 31
0.0
  0
LINE
  5
78
330
17
100
AcDbEntity
  8
0
100
AcDbLine
 10
26.879888236567748
 20
-73.9485294813195
 30
-5.0
 11
26.879888236567748
 21
-73.9485294813195
 31
0.0
  0
LINE
  5
79
330
17
100
AcDbEntity
  8
0
100
AcDbLine
 10
34.752316350851444
 20
-80.33264037277445
 30
0.0
 11
26.879888236567744
 21
-73.9485294813195
 31
0.0
  0
LINE
  5
7A
330
17
100
AcDbEntity
  8
0
100
AcDbLine
 10
55.8580826912672
 20
-109.33388988693396
 30
-5.0
 11
55.8580826912672
 21
-109.33388988693396
 31
0.0
  0
LINE
  5
7B
330
17
100
AcDbEntity
  8
0
100
AcDbLine
 10
55.8580826912672
 20
-109.33388988693393
 30
0.0
 11
54.67709656846628
 21
-109.4093887340111
 31
0.0
  0
LINE
  5
7C
330
17
100
AcDbEntity
  8
0
100
AcDbLine
 10
6.336288052795242
 20
-69.72195457410244
 30
-5.0
 11
6.336288052795242
 21
-69.72195457410244
 31
0.0
  0
LINE
  5
7D
330
17
100
AcDbEntity
  8
0
100
AcDbLine
 10
26.879888236567744
 20
-73.94852948131951
 30
0.0
 11
6.336288052795242
 21
-69.72195457410245
 31
0.0
  0
LINE
  5
7E
330
17
100
AcDbEntity
  8
0
100
AcDbLine
 10
69.02649976017629
 20
-108.77873089765407
 30
-5.0
 11
69.02649976017629
 21
-108.77873089765407
 31
0.0
  0
LINE
  5
7F
330
17
100
AcDbEntity
  8
0
100
AcDbLine
 10
55.8580826912672
 20
-109.33388988693397
 30
0.0
 11
69.0264997601763
 21
-108.77873089765407
 31
0.0
  0
LINE
  5
80
330
17
100
AcDbEntity
  8
0
100
AcDbLine
 10
-15.638525797338053
 20
-69.72195457410244
 30
-5.0
 11
-15.638525797338053
 21
-69.72195457410244
 31
0.0
  0
LINE
  5
81
330
17
100
AcDbEntity
  8
0
100
AcDbLine
 10
-15.638525797338055
 20
-69.72195457410245
 30
0.0
 11
6.3362880527952425
 21
-69.72195457410245
 31
0.0
  0
LINE
  5
82
330
17
100
AcDbEntity
  8
0
100
AcDbLine
 10
82.91112954079979
 20
-96.50222374155284
 30
-5.0
 11
82.91112954079979
 21
-96.50222374155284
 31
0.0
  0
LINE
  5
83
330
17
100
AcDbEntity
  8
0
100
AcDbLine
 10
82.9111295407998
 20
-96.50222374155285
 30
0.0
 11
69.02649976017629
 21
-108.77873089765407
 31
0.0
  0
LINE
  5
84
330
17
100
AcDbEntity
  8
0
100
AcDbLine
 10
-16.78165887283903
 20
-67.17195652746744
 30
-5.0
 11
-16.78165887283903
 21
-67.17195652746744
 31
0.0
  0
LINE
  5
85
330
17
100
AcDbEntity
  8
0
100
AcDbLine
 10
-15.638525797338051
 20
-69.72195457410244
 30
0.0
 11
-16.78165887283903
 21
-67.17195652746744
 31
0.0
  0
LINE
  5
86
330
17
100
AcDbEntity
  8
0
100
AcDbLine
 10
85.14031082254061
 20
-96.5406121582584
 30
-5.0
 11
85.14031082254061
 21
-96.5406121582584
 31
0.0
  0
LINE
  5
87
330
17
100
AcDbEntity
  8
0
100
AcDbLine
 10
85.14031082254061
 20
-96.54061215825838
 30
0.0
 11
82.91112954079978
 21
-96.50222374155283
 31
0.0
  0
LINE
  5
88
330
17
100
AcDbEntity
  8
0
100
AcDbLine
 10
-18.397182134425
 20
-52.210561336530084
 30
-5.0
 11
-18.397182134425
 21
-52.210561336530084
 31
0.0
  0
LINE
  5
89
330
17
100
AcDbEntity
  8
0
100
AcDbLine
 10
-16.781658872839028
 20
-67.17195652746744
 30
0.0
 11
-18.397182134425005
 21
-52.210561336530084
 31
0.0
  0
LINE
  5
8A
330
17
100
AcDbEntity
  8
0
100
AcDbLine
 10
87.49614633460489
 20
-95.47844234448179
 30
-5.0
 11
87.49614633460489
 21
-95.47844234448179
 31
0.0
  0
LINE
  5
8B
330
17
100
AcDbEntity
  8
0
100
AcDbLine
 10
85.14031082254063
 20
-96.54061215825843
 30
0.0
 11
87.4961463346049
 21
-95.4784423444818
 31
0.0
  0
LINE
  5
8C
330
17
100
AcDbEntity
  8
0
100
AcDbLine
 10
-53.34794172587514
 20
-52.21056133653008
 30
-5.0
 11
-53.34794172587514
 21
-52.21056133653008
 31
0.0
  0
LINE
  5
8D
330
17
100
AcDbEntity
  8
0
100
AcDbLine
 10
-18.397182134425
 20
-52.21056133653007
 30
0.0
 11
-53.34794172587514
 21
-52.21056133653007
 31
0.0
  0
LINE
  5
8E
330
17
100
AcDbEntity
  8
0
100
AcDbLine
 10
101.50838464524479
 20
-83.97096999625374
 30
-5.0
 11
101.50838464524479
 21
-83.97096999625374
 31
0.0
  0
LINE
  5
8F
330
17
100
AcDbEntity
  8
0
100
AcDbLine
 10
87.49614633460487
 20
-95.47844234448176
 30
0.0
 11
101.50838464524477
 21
-83.97096999625373
 31
0.0
  0
LINE
  5
90
330
17
100
AcDbEntity
  8
0
100
AcDbLine
 10
-56.05234329846879
 20
-49.237910044353356
 30
-5.0
 11
-56.05234329846879
 21
-49.237910044353356
 31
0.0
  0
LINE
  5
91
330
17
100
AcDbEntity
  8
0
100
AcDbLine
 10
-56.05234329846879
 20
-49.237910044353356
 30
0.0
 11
-53.34794172587513
 21
-52.21056133653008
 31
0.0
  0
LINE
  5
92
330
17
100
AcDbEntity
  8
0
100
AcDbLine
 10
102.85848688954711
 20
-75.23949013807915
 30
-5.0
 11
102.85848688954711
 21
-75.23949013807915
 31
0.0
  0
LINE
  5
93
330
17
100
AcDbEntity
  8
0
100
AcDbLine
 10
102.85848688954712
 20
-75.23949013807915
 30
0.0
 11
101.5083846452448
 21
-83.97096999625374
 31
0.0
  0
LINE
  5
94
330
17
100
AcDbEntity
  8
0
100
AcDbLine
 10
-62.79357744972086
 20
-41.39615860405768
 30
-5.0
 11
-62.79357744972086
 21
-41.39615860405768
 31
0.0
  0
LINE
  5
95
330
17
100
AcDbEntity
  8
0
100
AcDbLine
 10
-62.793577449720864
 20
-41.39615860405769
 30
0.0
 11
-56.0523432984688
 21
-49.23791004435336
 31
0.0
  0
LINE
  5
96
330
17
100
AcDbEntity
  8
0
100
AcDbLine
 10
103.19944708305667
 20
-72.42749111422484
 30
-5.0
 11
103.19944708305667
 21
-72.42749111422484
 31
0.0
  0
LINE
  5
97
330
17
100
AcDbEntity
  8
0
100
AcDbLine
 10
103.19944708305668
 20
-72.42749111422484
 30
0.0
 11
102.85848688954712
 21
-75.23949013807916
 31
0.0
  0
LINE
  5
98
330
17
100
AcDbEntity
  8
0
100
AcDbLine
 10
-63.00428554575
 20
-40.74836351887029
 30
-5.0
 11
-63.00428554575
 21
-40.74836351887029
 31
0.0
  0
LINE
  5
99
330
17
100
AcDbEntity
  8
0
100
AcDbLine
 10
-63.00428554575001
 20
-40.7483635188703
 30
0.0
 11
-62.793577449720864
 21
-41.39615860405769
 31
0.0
  0
LINE
  5
9A
330
17
100
AcDbEntity
  8
0
100
AcDbLine
 10
99.83047931418156
 20
-65.73056994182562
 30
-5.0
 11
99.83047931418156
 21
-65.73056994182562
 31
0.0
  0
LINE
  5
9B
330
17
100
AcDbEntity
  8
0
100
AcDbLine
 10
103.19944708305667
 20
-72.42749111422484
 30
0.0
 11
99.83047931418156
 21
-65.73056994182562
 31
0.0
  0
LINE
  5
9C
330
17
100
AcDbEntity
  8
0
100
AcDbLine
 10
-62.793577449720864
 20
-31.72572595922874
 30
-5.0
 11
-62.793577449720864
 21
-31.72572595922874
 31
0.0
  0
LINE
  5
9D
330
17
100
AcDbEntity
  8
0
100
AcDbLine
 10
-62.79357744972141
 20
-31.725725959228733
 30
0.0
 11
-63.00428554575113
 21
-40.74836351887026
 31
0.0
  0
LINE
  5
9E
330
17
100
AcDbEntity
  8
0
100
AcDbLine
 10
93.78968257777954
 20
-57.9987027072886
 30
-5.0
 11
93.78968257777954
 21
-57.9987027072886
 31
0.0
  0
LINE
  5
9F
330
17
100
AcDbEntity
  8
0
100
AcDbLine
 10
93.78968257777956
 20
-57.9987027072886
 30
0.0
 11
99.83047931418145
 21
-65.73056994182572
 31
0.0
  0
LINE
  5
A0
330
17
100
AcDbEntity
  8
0
100
AcDbLine
 10
-61.987836729757475
 20
-22.780005141868642
 30
-5.0
 11
-61.987836729757475
 21
-22.780005141868642
 31
0.0
  0
LINE
  5
A1
330
17
100
AcDbEntity
  8
0
100
AcDbLine
 10
-61.98783672975744
 20
-22.780005141868646
 30
0.0
 11
-62.793577449720836
 21
-31.725725959228747
 31
0.0
  0
LINE
  5
A2
330
17
100
AcDbEntity
  8
0
100
AcDbLine
 10
97.71658208815236
 20
-48.46915311257762
 30
-5.0
 11
97.71658208815236
 21
-48.46915311257762
 31
0.0
  0
LINE
  5
A3
330
17
100
AcDbEntity
  8
0
100
AcDbLine
 10
97.71658208815239
 20
-48.46915311257763
 30
0.0
 11
93.78968257777956
 21
-57.99870270728861
 31
0.0
  0
LINE
  5
A4
330
17
100
AcDbEntity
  8
0
100
AcDbLine
 10
-61.629471163764265
 20
-14.95
 30
-5.0
 11
-61.629471163764265
 21
-14.95
 31
0.0
  0
LINE
  5
A5
330
17
100
AcDbEntity
  8
0
100
AcDbLine
 10
-61.987836729757475
 20
-22.780005141868642
 30
0.0
 11
-61.629471163764265
 21
-14.95
 31
0.0
  0
LINE
  5
A6
330
17
100
AcDbEntity
  8
0
100
AcDbLine
 10
95.8865471596267
 20
-46.23766516775949
 30
-5.0
 11
95.8865471596267
 21
-46.23766516775949
 31
0.0
  0
LINE
  5
A7
330
17
100
AcDbEntity
  8
0
100
AcDbLine
 10
95.88654715962669
 20
-46.237665167759495
 30
0.0
 11
97.71658208815235
 21
-48.46915311257764
 31
0.0
  0
LINE
  5
A8
330
17
100
AcDbEntity
  8
0
100
AcDbLine
 10
-61.629471163764265
 20
2.9499999999999993
 30
-5.0
 11
-61.629471163764265
 21
2.9499999999999993
 31
0.0
  0
LINE
  5
A9
330
17
100
AcDbEntity
  8
0
100
AcDbLine
 10
-61.629471163764265
 20
2.9499999999999993
 30
0.0
 11
-61.629471163764265
 21
-14.95
 31
0.0
  0
LINE
  5
AA
330
17
100
AcDbEntity
  8
0
100
AcDbLine
 10
88.38272697490183
 20
-39.941212418336086
 30
-5.0
 11
88.38272697490183
 21
-39.941212418336086
 31
0.0
  0
LINE
  5
AB
330
17
100
AcDbEntity
  8
0
100
AcDbLine
 10
95.886547159627
 20
-46.23766516775915
 30
0.0
 11
88.38272697490184
 21
-39.94121241833609
 31
0.0
  0
LINE
  5
AC
330
17
100
AcDbEntity
  8
0
100
AcDbLine
 10
-61.987836729757475
 20
10.780005141868642
 30
-5.0
 11
-61.987836729757475
 21
10.780005141868642
 31
0.0
  0
LINE
  5
AD
330
17
100
AcDbEntity
  8
0
100
AcDbLine
 10
-61.62947116376427
 20
2.9499999999999984
 30
0.0
 11
-61.98783672975746
 21
10.780005141868644
 31
0.0
  0
LINE
  5
AE
330
17
100
AcDbEntity
  8
0
100
AcDbLine
 10
100.88022730493698
 20
-20.187760792795284
 30
-5.0
 11
100.88022730493698
 21
-20.187760792795284
 31
0.0
  0
LINE
  5
AF
330
17
100
AcDbEntity
  8
0
100
AcDbLine
 10
88.38272697490183
 20
-39.941212418336086
 30
0.0
 11
100.88022730493698
 21
-20.187760792795284
 31
0.0
  0
LINE
  5
B0
330
17
100
AcDbEntity
  8
0
100
AcDbLine
 10
-62.793577449720864
 20
19.725725959228846
 30
-5.0
 11
-62.793577449720864
 21
19.725725959228846
 31
0.0
  0
LINE
  5
B1
330
17
100
AcDbEntity
  8
0
100
AcDbLine
 10
-61.98783672975745
 20
10.780005141868646
 30
0.0
 11
-62.79357744972085
 21
19.72572595922885
 31
0.0
  0
LINE
  5
B2
330
17
100
AcDbEntity
  8
0
100
AcDbLine
 10
103.20959500412503
 20
-14.801094889393118
 30
-5.0
 11
103.20959500412503
 21
-14.801094889393118
 31
0.0
  0
LINE
  5
B3
330
17
100
AcDbEntity
  8
0
100
AcDbLine
 10
103.20959500412503
 20
-14.801094889393113
 30
-3.552713678800501e-15
 11
100.88022730493698
 21
-20.18776079279528
 31
-3.552713678800501e-15
  0
LINE
  5
B4
330
17
100
AcDbEntity
  8
0
100
AcDbLine
 10
-63.00202979290082
 20
28.651770930518055
 30
-5.0
 11
-63.00202979290082
 21
28.651770930518055
 31
0.0
  0
LINE
  5
B5
330
17
100
AcDbEntity
  8
0
100
AcDbLine
 10
-63.002029792900835
 20
28.651770930518055
 30
8.881784197001252e-16
 11
-62.79357744972087
 21
19.725725959228846
 31
8.881784197001252e-16
  0
LINE
  5
B6
330
17
100
AcDbEntity
  8
0
100
AcDbLine
 10
103.58816739370496
 20
-9.05
 30
-5.0
 11
103.58816739370496
 21
-9.05
 31
0.0
  0
LINE
  5
B7
330
17
100
AcDbEntity
  8
0
100
AcDbLine
 10
103.58816739370496
 20
-9.05
 30
0.0
 11
103.20959500412503
 21
-14.801094889393118
 31
0.0
  0
LINE
  5
B8
330
17
100
AcDbEntity
  8
0
100
AcDbLine
 10
-63.28500607414118
 20
36.4902262173376
 30
-5.0
 11
-63.28500607414118
 21
36.4902262173376
 31
0.0
  0
LINE
  5
B9
330
17
100
AcDbEntity
  8
0
100
AcDbLine
 10
-63.2850060741412
 20
36.49022621733761
 30
0.0
 11
-63.002029792900835
 21
28.651770930518058
 31
0.0
  0
LINE
  5
BA
330
17
100
AcDbEntity
  8
0
100
AcDbLine
 10
103.58816739370496
 20
9.05
 30
-5.0
 11
103.58816739370496
 21
9.05
 31
0.0
  0
LINE
  5
BB
330
17
100
AcDbEntity
  8
0
100
AcDbLine
 10
103.58816739370495
 20
9.05
 30
0.0
 11
103.58816739370495
 21
-9.05
 31
0.0
  0
LINE
  5
BC
330
17
100
AcDbEntity
  8
0
100
AcDbLine
 10
-64.06940649712591
 20
52.07868746584066
 30
-5.0
 11
-64.06940649712591
 21
52.07868746584066
 31
0.0
  0
LINE
  5
BD
330
17
100
AcDbEntity
  8
0
100
AcDbLine
 10
-63.28500607414153
 20
36.49022621733758
 30
0.0
 11
-64.06940649712591
 21
52.07868746584066
 31
0.0
  0
LINE
  5
BE
330
17
100
AcDbEntity
  8
0
100
AcDbLine
 10
103.20959500412503
 20
14.801094889393118
 30
-5.0
 11
103.20959500412503
 21
14.801094889393118
 31
0.0
  0
LINE
  5
BF
330
17
100
AcDbEntity
  8
0
100
AcDbLine
 10
103.58816739370495
 20
9.05
 30
0.0
 11
103.20959500412502
 21
14.801094889393116
 31
0.0
  0
LINE
  5
C0
330
17
100
AcDbEntity
  8
0
100
AcDbLine
 10
-63.68446337789945
 20
54.628685512475656
 30
-5.0
 11
-63.68446337789945
 21
54.628685512475656
 31
0.0
  0
LINE
  5
C1
330
17
100
AcDbEntity
  8
0
100
AcDbLine
 10
-63.684463377899434
 20
54.628685512475656
 30
0.0
 11
-64.0694064971259
 21
52.07868746584066
 31
0.0
  0
LINE
  5
C2
330
17
100
AcDbEntity
  8
0
100
AcDbLine
 10
100.88022730493698
 20
32.18776079279528
 30
-5.0
 11
100.88022730493698
 21
32.18776079279528
 31
0.0
  0
LINE
  5
C3
330
17
100
AcDbEntity
  8
0
100
AcDbLine
 10
100.880227304937
 20
32.18776079279528
 30
0.0
 11
103.20959500412505
 21
14.80109488939312
 31
0.0
  0
LINE
  5
C4
330
17
100
AcDbEntity
  8
0
100
AcDbLine
 10
-54.67818059840459
 20
63.72195457410244
 30
-5.0
 11
-54.67818059840459
 21
63.72195457410244
 31
0.0
  0
LINE
  5
C5
330
17
100
AcDbEntity
  8
0
100
AcDbLine
 10
-54.678180598404595
 20
63.721954574102455
 30
0.0
 11
-63.684463377899455
 21
54.62868551247566
 31
0.0
  0
LINE
  5
C6
330
17
100
AcDbEntity
  8
0
100
AcDbLine
 10
99.77030917559274
 20
37.546928727917916
 30
-5.0
 11
99.77030917559274
 21
37.546928727917916
 31
0.0
  0
LINE
  5
C7
330
17
100
AcDbEntity
  8
0
100
AcDbLine
 10
99.77030917559276
 20
37.546928727917916
 30
0.0
 11
100.880227304937
 21
32.18776079279528
 31
0.0
  0
LINE
  5
C8
330
17
100
AcDbEntity
  8
0
100
AcDbLine
 10
-15.656800558416016
 20
63.72195457410244
 30
-5.0
 11
-15.656800558416016
 21
63.72195457410244
 31
0.0
  0
LINE
  5
C9
330
17
100
AcDbEntity
  8
0
100
AcDbLine
 10
-15.656800558416016
 20
63.72195457410245
 30
0.0
 11
-54.67818059840458
 21
63.72195457410245
 31
0.0
  0
LINE
  5
CA
330
17
100
AcDbEntity
  8
0
100
AcDbLine
 10
95.27031606981949
 20
53.13538997642098
 30
-5.0
 11
95.27031606981949
 21
53.13538997642098
 31
0.0
  0
LINE
  5
CB
330
17
100
AcDbEntity
  8
0
100
AcDbLine
 10
95.27031606981947
 20
53.13538997642098
 30
0.0
 11
99.77030917559273
 21
37.54692872791791
 31
0.0
  0
LINE
  5
CC
330
17
100
AcDbEntity
  8
0
100
AcDbLine
 10
-11.050377850606925
 20
69.72195457410244
 30
-5.0
 11
-11.050377850606925
 21
69.72195457410244
 31
0.0
  0
LINE
  5
CD
330
17
100
AcDbEntity
  8
0
100
AcDbLine
 10
-11.050377850606921
 20
69.72195457410244
 30
0.0
 11
-15.656800558416014
 21
63.72195457410244
 31
0.0
  0
LINE
  5
CE
330
17
100
AcDbEntity
  8
0
100
AcDbLine
 10
85.77031606981949
 20
63.63538997642098
 30
-5.0
 11
85.77031606981949
 21
63.63538997642098
 31
0.0
  0
LINE
  5
CF
330
17
100
AcDbEntity
  8
0
100
AcDbLine
 10
95.27031606981949
 20
53.13538997642098
 30
0.0
 11
85.77031606981949
 21
63.63538997642098
 31
0.0
  0
LINE
  5
D0
330
17
100
AcDbEntity
  8
0
100
AcDbLine
 10
6.336288052795242
 20
69.72195457410244
 30
-5.0
 11
6.336288052795242
 21
69.72195457410244
 31
0.0
  0
LINE
  5
D1
330
17
100
AcDbEntity
  8
0
100
AcDbLine
 10
-11.050377850606925
 20
69.72195457410245
 30
0.0
 11
6.336288052795242
 21
69.72195457410245
 31
0.0
  0
LINE
  5
D2
330
17
100
AcDbEntity
  8
0
100
AcDbLine
 10
64.62130860324176
 20
69.72195457410244
 30
-5.0
 11
64.62130860324176
 21
69.72195457410244
 31
0.0
  0
LINE
  5
D3
330
17
100
AcDbEntity
  8
0
100
AcDbLine
 10
64.62130860324176
 20
69.72195457410244
 30
-1.7763568394002505e-15
 11
85.7703160698195
 21
63.63538997642098
 31
-1.7763568394002505e-15
  0
LINE
  5
D4
330
17
100
AcDbEntity
  8
0
100
AcDbLine
 10
10.737085773700011
 20
72.54195457410243
 30
-5.0
 11
10.737085773700011
 21
72.54195457410243
 31
0.0
  0
LINE
  5
D5
330
17
100
AcDbEntity
  8
0
100
AcDbLine
 10
6.3362880527952505
 20
69.72195457410244
 30
0.0
 11
10.73708577370002
 21
72.54195457410243
 31
0.0
  0
LINE
  5
D6
330
17
100
AcDbEntity
  8
0
100
AcDbLine
 10
29.71276949128587
 20
69.72195457410244
 30
-5.0
 11
29.71276949128587
 21
69.72195457410244
 31
0.0
  0
LINE
  5
D7
330
17
100
AcDbEntity
  8
0
100
AcDbLine
 10
64.62130860324176
 20
69.72195457410244
 30
0.0
 11
29.712769491285865
 21
69.72195457410244
 31
0.0
  0
LINE
  5
D8
330
17
100
AcDbEntity
  8
0
100
AcDbLine
 10
27.745524035170778
 20
72.54195457410243
 30
-5.0
 11
27.745524035170778
 21
72.54195457410243
 31
0.0
  0
LINE
  5
D9
330
17
100
AcDbEntity
  8
0
100
AcDbLine
 10
27.745524035170778
 20
72.54195457410242
 30
0.0
 11
10.73708577370001
 21
72.54195457410242
 31
0.0
  0
LINE
  5
DA
330
17
100
AcDbEntity
  8
0
100
AcDbLine
 10
29.712769491285858
 20
69.72195457410244
 30
0.0
 11
27.745524035170767
 21
72.54195457410243
 31
0.0
  0
LINE
  5
DB
330
17
100
AcDbEntity
  8
0
100
AcDbLine
 10
49.14849438485114
 20
-95.13776079279526
 30
-5.0
 11
49.14849438485114
 21
-95.13776079279526
 31
-3.75
  0
CIRCLE
  5
DC
330
17
100
AcDbEntity
  8
0
100
AcDbCircle
 10
52.14849438485114
 20
-95.13776079279526
 30
-3.75
 40
3.0
  0
LINE
  5
DD
330
17
100
AcDbEntity
  8
0
100
AcDbLine
 10
-4.428765251703142
 20
-63.83298032466794
 30
-5.0
 11
-4.428765251703142
 21
-63.83298032466794
 31
-3.75
  0
CIRCLE
  5
DE
330
17
100
AcDbEntity
  8
0
100
AcDbCircle
 10
-1.4287652517031422
 20
-63.83298032466794
 30
-3.75
 40
3.0
  0
LINE
  5
DF
330
17
100
AcDbEntity
  8
0
100
AcDbLine
 10
-58.59666774605498
 20
-33.326710313668265
 30
-5.0
 11
-58.59666774605498
 21
-33.326710313668265
 31
-3.75
  0
CIRCLE
  5
E0
330
17
100
AcDbEntity
  8
0
100
AcDbCircle
 10
-55.59666774605498
 20
-33.326710313668265
 30
-3.75
 40
3.0
  0
LINE
  5
E1
330
17
100
AcDbEntity
  8
0
100
AcDbLine
 10
94.494911154531
 20
-11.444427841094202
 30
-5.0
 11
94.494911154531
 21
-11.444427841094202
 31
-3.75
  0
CIRCLE
  5
E2
330
17
100
AcDbEntity
  8
0
100
AcDbCircle
 10
97.494911154531
 20
-11.444427841094202
 30
-3.75
 40
3.0
  0
LINE
  5
E3
330
17
100
AcDbEntity
  8
0
100
AcDbLine
 10
89.97031262270607
 20
45.291159352169444
 30
-5.0
 11
89.97031262270607
 21
45.291159352169444
 31
-3.75
  0
CIRCLE
  5
E4
330
17
100
AcDbEntity
  8
0
100
AcDbCircle
 10
92.97031262270607
 20
45.291159352169444
 30
-3.75
 40
3.0
  0
LINE
  5
E5
330
17
100
AcDbEntity
  8
0
100
AcDbLine
 10
-4.525822239169305
 20
64.48249954335557
 30
-5.0
 11
-4.525822239169305
 21
64.48249954335557
 31
-3.75
  0
CIRCLE
  5
E6
330
17
100
AcDbEntity
  8
0
100
AcDbCircle
 10
-1.525822239169305
 20
64.48249954335557
 30
-3.75
 40
3.0
  0
LINE
  5
E7
330
17
100
AcDbEntity
  8
0
100
AcDbLine
 10
-59.515960285633994
 20
46.79115360697827
 30
-5.0
 11
-59.515960285633994
 21
46.79115360697827
 31
-3.75
  0
CIRCLE
  5
E8
330
17
100
AcDbEntity
  8
0
100
AcDbCircle
 10
-56.515960285633994
 20
46.79115360697827
 30
-3.75
 40
3.0
  0
CIRCLE
  5
E9
330
17
100
AcDbEntity
  8
0
100
AcDbCircle
 10
52.14849438485116
 20
-95.13776079279529
 30
0.0
 40
1.5
  0
CIRCLE
  5
EA
330
17
100
AcDbEntity
  8
0
100
AcDbCircle
 10
-1.4287652517031353
 20
-63.83298032466796
 30
0.0
 40
1.5
  0
CIRCLE
  5
EB
330
17
100
AcDbEntity
  8
0
100
AcDbCircle
 10
-55.59666774605499
 20
-33.32671031366827
 30
0.0
 40
1.5
  0
CIRCLE
  5
EC
330
17
100
AcDbEntity
  8
0
100
AcDbCircle
 10
97.49491115453101
 20
-11.444427841094203
 30
0.0
 40
1.5
  0
CIRCLE
  5
ED
330
17
100
AcDbEntity
  8
0
100
AcDbCircle
 10
92.9703126227061
 20
45.29115935216945
 30
0.0
 40
1.5
  0
CIRCLE
  5
EE
330
17
100
AcDbEntity
  8
0
100
AcDbCircle
 10
-1.525822239169298
 20
64.48249954335559
 30
0.0
 40
1.5
  0
CIRCLE
  5
EF
330
17
100
AcDbEntity
  8
0
100
AcDbCircle
 10
-56.515960285633994
 20
46.791153606978284
 30
0.0
 40
1.5
  0
LINE
  5
F0
330
17
100
AcDbEntity
  8
0
100
AcDbLine
 10
82.19762823707214
 20
-40.72327655405402
 30
0.0
 11
84.0276631655978
 21
-42.954764498872144
 31
0.0
  0
LINE
  5
F1
330
17
100
AcDbEntity
  8
0
100
AcDbLine
 10
84.0276631655978
 20
-42.95476449887214
 30
0.0
 11
92.43645803159549
 21
-50.010581169576206
 31
0.0
  0
LINE
  5
F2
330
17
100
AcDbEntity
  8
0
100
AcDbLine
 10
88.1596313879091
 20
-58.82385059565907
 30
0.0
 11
92.4364580315955
 21
-50.01058116957621
 31
0.0
  0
LINE
  5
F3
330
17
100
AcDbEntity
  8
0
100
AcDbLine
 10
88.15963138790912
 20
-58.82385059565908
 30
0.0
 11
90.81767480370326
 21
-62.225991023710705
 31
0.0
  0
LINE
  5
F4
330
17
100
AcDbEntity
  8
0
100
AcDbLine
 10
90.81767480370326
 20
-62.225991023710705
 30
0.0
 11
98.12965930074147
 21
-76.23352491902345
 31
0.0
  0
LINE
  5
F5
330
17
100
AcDbEntity
  8
0
100
AcDbLine
 10
98.12965930074148
 20
-76.23352491902345
 30
0.0
 11
97.52057795995647
 21
-79.4230518169127
 31
0.0
  0
LINE
  5
F6
330
17
100
AcDbEntity
  8
0
100
AcDbLine
 10
97.52057795995646
 20
-79.42305181691268
 30
0.0
 11
83.64791246102146
 21
-90.78537547767365
 31
0.0
  0
LINE
  5
F7
330
17
100
AcDbEntity
  8
0
100
AcDbLine
 10
83.64791246102149
 20
-90.78537547767368
 30
0.0
 11
79.9885489930559
 21
-91.66422136736799
 31
0.0
  0
LINE
  5
F8
330
17
100
AcDbEntity
  8
0
100
AcDbLine
 10
79.9885489930559
 20
-91.66422136736799
 30
0.0
 11
78.79222432335379
 21
-92.21982686599283
 31
0.0
  0
LINE
  5
F9
330
17
100
AcDbEntity
  8
0
100
AcDbLine
 10
64.83878747568956
 20
-104.42722929682002
 30
0.0
 11
78.7922243233538
 21
-92.21982686599283
 31
0.0
  0
LINE
  5
FA
330
17
100
AcDbEntity
  8
0
100
AcDbLine
 10
60.02776880694815
 20
-104.77009357936429
 30
0.0
 11
64.83878747568954
 21
-104.42722929682002
 31
0.0
  0
LINE
  5
FB
330
17
100
AcDbEntity
  8
0
100
AcDbLine
 10
54.232503974280746
 20
-101.27463756947175
 30
-1.7763568394002505e-15
 11
60.027768806948146
 21
-104.77009357936429
 31
-1.7763568394002505e-15
  0
LINE
  5
FC
330
17
100
AcDbEntity
  8
0
100
AcDbLine
 10
52.82252715481197
 20
-99.3339709668713
 30
0.0
 11
54.23250397428075
 21
-101.27463756947174
 31
0.0
  0
ARC
  5
FD
330
17
100
AcDbEntity
  8
0
100
AcDbCircle
 10
52.14849438485116
 20
-95.13776079279529
 30
0.0
 40
4.25
100
AcDbArc
 50
-80.87459070499801
 51
124.9742373656317
  0
LINE
  5
FE
330
17
100
AcDbEntity
  8
0
100
AcDbLine
 10
49.712360161439996
 20
-91.65526886236319
 30
0.0
 11
50.25135716468949
 21
-89.91243845463023
 31
0.0
  0
LINE
  5
FF
330
17
100
AcDbEntity
  8
0
100
AcDbLine
 10
40.210664278203126
 20
-78.76111927734206
 30
0.0
 11
50.251357164689495
 21
-89.91243845463026
 31
0.0
  0
LINE
  5
100
330
17
100
AcDbEntity
  8
0
100
AcDbLine
 10
26.838867609986565
 20
-68.44202883647449
 30
0.0
 11
40.21066427820315
 21
-78.76111927734206
 31
0.0
  0
LINE
  5
101
330
17
100
AcDbEntity
  8
0
100
AcDbLine
 10
5.885030422105668
 20
-63.18823865284998
 30
0.0
 11
26.838867609986565
 21
-68.44202883647448
 31
0.0
  0
LINE
  5
102
330
17
100
AcDbEntity
  8
0
100
AcDbLine
 10
5.885030422105663
 20
-63.18823865285001
 30
0.0
 11
2.7720451673257216
 21
-63.18823865285001
 31
0.0
  0
ARC
  5
103
330
17
100
AcDbEntity
  8
0
100
AcDbCircle
 10
-1.4287652517031353
 20
-63.83298032466796
 30
0.0
 40
4.25
100
AcDbArc
 50
8.7256843031916
 51
171.2743156968084
  0
LINE
  5
104
330
17
100
AcDbEntity
  8
0
100
AcDbLine
 10
-5.629575670731992
 20
-63.18823865285001
 30
0.0
 11
-13.112437686812035
 21
-63.18823865285001
 31
0.0
  0
LINE
  5
105
330
17
100
AcDbEntity
  8
0
100
AcDbLine
 10
-15.163245834013523
 20
-47.7673022723273
 30
0.0
 11
-13.112437686812033
 21
-63.18823865285002
 31
0.0
  0
LINE
  5
106
330
17
100
AcDbEntity
  8
0
100
AcDbLine
 10
-16.018674592933188
 20
-46.44732623165212
 30
0.0
 11
-15.163245834013525
 21
-47.767302272327306
 31
0.0
  0
LINE
  5
107
330
17
100
AcDbEntity
  8
0
100
AcDbLine
 10
-53.573905800497045
 20
-46.44732623165211
 30
0.0
 11
-16.018674592933184
 21
-46.44732623165211
 31
0.0
  0
LINE
  5
108
330
17
100
AcDbEntity
  8
0
100
AcDbLine
 10
-55.95797574697091
 20
-43.59588814892886
 30
0.0
 11
-53.57390580049705
 21
-46.44732623165212
 31
0.0
  0
LINE
  5
109
330
17
100
AcDbEntity
  8
0
100
AcDbLine
 10
-55.95797574697091
 20
-43.59588814892886
 30
0.0
 11
-57.45908720904037
 21
-41.41720878600217
 31
0.0
  0
LINE
  5
10A
330
17
100
AcDbEntity
  8
0
100
AcDbLine
 10
-57.11207300671914
 20
-37.297358484427235
 30
0.0
 11
-57.45908720904039
 21
-41.41720878600218
 31
0.0
  0
ARC
  5
10B
330
17
100
AcDbEntity
  8
0
100
AcDbCircle
 10
-55.59666774605499
 20
-33.32671031366827
 30
0.0
 40
4.25
100
AcDbArc
 50
-110.88944801126127
 51
101.26015220027061
  0
LINE
  5
10C
330
17
100
AcDbEntity
  8
0
100
AcDbLine
 10
-55.89254868709367
 20
-22.818822440718744
 30
0.0
 11
-56.426540186485084
 21
-29.15851985105568
 31
0.0
  0
LINE
  5
10D
330
17
100
AcDbEntity
  8
0
100
AcDbLine
 10
-55.56001600358323
 20
-15.05
 30
0.0
 11
-55.89254868709371
 21
-22.81882244071874
 31
0.0
  0
LINE
  5
10E
330
17
100
AcDbEntity
  8
0
100
AcDbLine
 10
-55.56001600358322
 20
-15.050000000000002
 30
0.0
 11
-55.56001600358322
 21
3.0500000000000007
 31
0.0
  0
LINE
  5
10F
330
17
100
AcDbEntity
  8
0
100
AcDbLine
 10
-55.892548687093694
 20
10.81882244071874
 30
0.0
 11
-55.560016003583215
 21
3.0500000000000016
 31
0.0
  0
LINE
  5
110
330
17
100
AcDbEntity
  8
0
100
AcDbLine
 10
-55.89254868709598
 20
10.818822440718549
 30
0.0
 11
-57.46779020082898
 21
29.5205331545871
 31
0.0
  0
LINE
  5
111
330
17
100
AcDbEntity
  8
0
100
AcDbLine
 10
-58.17600622679953
 20
35.153084129626464
 30
0.0
 11
-57.467790200828986
 21
29.5205331545871
 31
0.0
  0
LINE
  5
112
330
17
100
AcDbEntity
  8
0
100
AcDbLine
 10
-58.31320953401314
 20
38.95362170148091
 30
0.0
 11
-58.17600622679954
 21
35.153084129626464
 31
0.0
  0
LINE
  5
113
330
17
100
AcDbEntity
  8
0
100
AcDbLine
 10
-58.313209534013126
 20
38.95362170148091
 30
0.0
 11
-58.51897217723644
 21
43.04276150340918
 31
0.0
  0
ARC
  5
114
330
17
100
AcDbEntity
  8
0
100
AcDbCircle
 10
-56.515960285633994
 20
46.791153606978284
 30
0.0
 40
4.25
100
AcDbArc
 50
-118.11851511509747
 51
123.87982256756128
  0
LINE
  5
115
330
17
100
AcDbEntity
  8
0
100
AcDbLine
 10
-58.88513457976894
 20
50.3195403720609
 30
0.0
 11
-58.99623831599099
 21
52.52751506956446
 31
0.0
  0
LINE
  5
116
330
17
100
AcDbEntity
  8
0
100
AcDbLine
 10
-54.763046361305555
 20
57.188238652849996
 30
0.0
 11
-58.996238315991015
 21
52.52751506956443
 31
0.0
  0
LINE
  5
117
330
17
100
AcDbEntity
  8
0
100
AcDbLine
 10
-15.925886205609348
 20
57.18823865284999
 30
0.0
 11
-54.76304636130557
 21
57.18823865284999
 31
0.0
  0
LINE
  5
118
330
17
100
AcDbEntity
  8
0
100
AcDbLine
 10
-11.501635481296502
 20
63.188238652849996
 30
0.0
 11
-15.925886205609352
 21
57.18823865284999
 31
0.0
  0
LINE
  5
119
330
17
100
AcDbEntity
  8
0
100
AcDbLine
 10
-5.573956222538387
 20
63.18823865285
 30
0.0
 11
-11.501635481296503
 21
63.18823865285
 31
0.0
  0
ARC
  5
11A
330
17
100
AcDbEntity
  8
0
100
AcDbCircle
 10
-1.525822239169298
 20
64.48249954335559
 30
0.0
 40
4.25
100
AcDbArc
 50
-162.26999142069303
 51
-17.730008579306997
  0
LINE
  5
11B
330
17
100
AcDbEntity
  8
0
100
AcDbLine
 10
5.885030422105665
 20
63.18823865285
 30
0.0
 11
2.5223117441997913
 21
63.18823865285
 31
0.0
  0
LINE
  5
11C
330
17
100
AcDbEntity
  8
0
100
AcDbLine
 10
5.885030422105666
 20
63.188238652849996
 30
0.0
 11
10.107090496762499
 21
66.00823865285
 31
0.0
  0
LINE
  5
11D
330
17
100
AcDbEntity
  8
0
100
AcDbLine
 10
26.927590213907617
 20
66.00823865285
 30
0.0
 11
10.107090496762488
 21
66.00823865285
 31
0.0
  0
LINE
  5
11E
330
17
100
AcDbEntity
  8
0
100
AcDbLine
 10
26.927590213907607
 20
66.00823865285
 30
0.0
 11
28.727569615906013
 21
63.18823865284999
 31
0.0
  0
LINE
  5
11F
330
17
100
AcDbEntity
  8
0
100
AcDbLine
 10
28.727569615906017
 20
63.18823865284999
 30
0.0
 11
63.47634062701832
 21
63.18823865284999
 31
0.0
  0
LINE
  5
120
330
17
100
AcDbEntity
  8
0
100
AcDbLine
 10
63.4763406270183
 20
63.18823865284999
 30
0.0
 11
85.67031606981948
 21
59.03538997642098
 31
0.0
  0
LINE
  5
121
330
17
100
AcDbEntity
  8
0
100
AcDbLine
 10
90.67031606981949
 20
53.03538997642099
 30
0.0
 11
85.67031606981949
 21
59.035389976420994
 31
0.0
  0
LINE
  5
122
330
17
100
AcDbEntity
  8
0
100
AcDbLine
 10
91.73222439770886
 20
49.35682504761505
 30
0.0
 11
90.67031606981949
 21
53.03538997642099
 31
0.0
  0
ARC
  5
123
330
17
100
AcDbEntity
  8
0
100
AcDbCircle
 10
92.9703126227061
 20
45.29115935216945
 30
0.0
 40
4.25
100
AcDbArc
 50
-253.06330783642892
 51
-74.73251923785796
  0
LINE
  5
124
330
17
100
AcDbEntity
  8
0
100
AcDbLine
 10
95.17030917559275
 20
37.44692872791792
 30
0.0
 11
94.08944623481264
 21
41.19115447921462
 31
0.0
  0
LINE
  5
125
330
17
100
AcDbEntity
  8
0
100
AcDbLine
 10
96.28022730493697
 20
32.08776079279529
 30
0.0
 11
95.17030917559273
 21
37.44692872791792
 31
0.0
  0
LINE
  5
126
330
17
100
AcDbEntity
  8
0
100
AcDbLine
 10
98.60959500412504
 20
14.701094889393117
 30
0.0
 11
96.28022730493699
 21
32.08776079279529
 31
0.0
  0
LINE
  5
127
330
17
100
AcDbEntity
  8
0
100
AcDbLine
 10
98.98816739370497
 20
8.95
 30
0.0
 11
98.60959500412504
 21
14.701094889393119
 31
0.0
  0
LINE
  5
128
330
17
100
AcDbEntity
  8
0
100
AcDbLine
 10
98.98816739370497
 20
8.950000000000001
 30
0.0
 11
98.98816739370497
 21
-7.4653970791914945
 31
0.0
  0
ARC
  5
129
330
17
100
AcDbEntity
  8
0
100
AcDbCircle
 10
97.49491115453101
 20
-11.444427841094203
 30
0.0
 40
4.25
100
AcDbArc
 50
-290.5701792259985
 51
-80.36894886159837
  0
LINE
  5
12A
330
17
100
AcDbEntity
  8
0
100
AcDbLine
 10
96.28022730493701
 20
-20.087760792795294
 30
0.0
 11
98.20594923360476
 21
-15.63452627073845
 31
0.0
  0
LINE
  5
12B
330
17
100
AcDbEntity
  8
0
100
AcDbLine
 10
96.28022730493697
 20
-20.087760792795276
 30
0.0
 11
82.19762823707212
 21
-40.72327655405402
 31
0.0
  0
CIRCLE
  5
12C
330
17
100
AcDbEntity
  8
0
100
AcDbCircle
 10
52.14849438485116
 20
-95.13776079279529
 30
-3.75
 40
1.5
  0
CIRCLE
  5
12D
330
17
100
AcDbEntity
  8
0
100
AcDbCircle
 10
-1.4287652517031353
 20
-63.83298032466796
 30
-3.75
 40
1.5
  0
CIRCLE
  5
12E
330
17
100
AcDbEntity
  8
0
100
AcDbCircle
 10
-55.59666774605499
 20
-33.32671031366827
 30
-3.75
 40
1.5
  0
CIRCLE
  5
12F
330
17
100
AcDbEntity
  8
0
100
AcDbCircle
 10
97.49491115453101
 20
-11.444427841094203
 30
-3.75
 40
1.5
  0
CIRCLE
  5
130
330
17
100
AcDbEntity
  8
0
100
AcDbCircle
 10
92.9703126227061
 20
45.29115935216945
 30
-3.75
 40
1.5
  0
CIRCLE
  5
131
330
17
100
AcDbEntity
  8
0
100
AcDbCircle
 10
-1.525822239169298
 20
64.48249954335559
 30
-3.75
 40
1.5
  0
CIRCLE
  5
132
330
17
100
AcDbEntity
  8
0
100
AcDbCircle
 10
-56.515960285633994
 20
46.791153606978284
 30
-3.75
 40
1.5
  0
LINE
  5
133
330
17
100
AcDbEntity
  8
0
100
AcDbLine
 10
50.64849438485116
 20
-95.13776079279529
 30
-3.75
 11
50.64849438485116
 21
-95.13776079279529
 31
0.0
  0
LINE
  5
134
330
17
100
AcDbEntity
  8
0
100
AcDbLine
 10
-2.928765251703135
 20
-63.83298032466796
 30
-3.75
 11
-2.928765251703135
 21
-63.83298032466796
 31
0.0
  0
LINE
  5
135
330
17
100
AcDbEntity
  8
0
100
AcDbLine
 10
-57.09666774605499
 20
-33.32671031366827
 30
-3.75
 11
-57.09666774605499
 21
-33.32671031366827
 31
0.0
  0
LINE
  5
136
330
17
100
AcDbEntity
  8
0
100
AcDbLine
 10
95.99491115453101
 20
-11.444427841094203
 30
-3.75
 11
95.99491115453101
 21
-11.444427841094203
 31
0.0
  0
LINE
  5
137
330
17
100
AcDbEntity
  8
0
100
AcDbLine
 10
91.4703126227061
 20
45.29115935216945
 30
-3.75
 11
91.4703126227061
 21
45.29115935216945
 31
0.0
  0
LINE
  5
138
330
17
100
AcDbEntity
  8
0
100
AcDbLine
 10
-3.025822239169298
 20
64.48249954335559
 30
-3.75
 11
-3.025822239169298
 21
64.48249954335559
 31
0.0
  0
LINE
  5
139
330
17
100
AcDbEntity
  8
0
100
AcDbLine
 10
-58.015960285633994
 20
46.791153606978284
 30
-3.75
 11
-58.015960285633994
 21
46.791153606978284
 31
0.0
  0
LINE
  5
13A
330
17
100
AcDbEntity
  8
0
100
AcDbLine
 10
82.19762823707214
 20
-40.72327655405402
 30
-2.0
 11
84.0276631655978
 21
-42.954764498872144
 31
-2.0
  0
LINE
  5
13B
330
17
100
AcDbEntity
  8
0
100
AcDbLine
 10
84.02766316559779
 20
-42.95476449887215
 30
-2.0
 11
84.02766316559779
 21
-42.95476449887215
 31
0.0
  0
LINE
  5
13C
330
17
100
AcDbEntity
  8
0
100
AcDbLine
 10
82.19762823707212
 20
-40.723276554054024
 30
-2.0
 11
82.19762823707212
 21
-40.723276554054024
 31
0.0
  0
LINE
  5
13D
330
17
100
AcDbEntity
  8
0
100
AcDbLine
 10
84.0276631655978
 20
-42.95476449887214
 30
-2.0
 11
92.43645803159549
 21
-50.010581169576206
 31
-2.0
  0
LINE
  5
13E
330
17
100
AcDbEntity
  8
0
100
AcDbLine
 10
92.43645803159549
 20
-50.010581169576206
 30
-2.0
 11
92.43645803159549
 21
-50.010581169576206
 31
0.0
  0
LINE
  5
13F
330
17
100
AcDbEntity
  8
0
100
AcDbLine
 10
88.1596313879091
 20
-58.82385059565907
 30
-2.0
 11
92.4364580315955
 21
-50.01058116957621
 31
-2.0
  0
LINE
  5
140
330
17
100
AcDbEntity
  8
0
100
AcDbLine
 10
88.15963138790912
 20
-58.82385059565907
 30
-2.0
 11
88.15963138790912
 21
-58.82385059565907
 31
0.0
  0
LINE
  5
141
330
17
100
AcDbEntity
  8
0
100
AcDbLine
 10
88.15963138790912
 20
-58.82385059565908
 30
-2.0
 11
90.81767480370326
 21
-62.225991023710705
 31
-2.0
  0
LINE
  5
142
330
17
100
AcDbEntity
  8
0
100
AcDbLine
 10
90.81767480370326
 20
-62.2259910237107
 30
-2.0
 11
90.81767480370326
 21
-62.2259910237107
 31
0.0
  0
LINE
  5
143
330
17
100
AcDbEntity
  8
0
100
AcDbLine
 10
90.81767480370326
 20
-62.225991023710705
 30
-2.0
 11
98.12965930074147
 21
-76.23352491902345
 31
-2.0
  0
LINE
  5
144
330
17
100
AcDbEntity
  8
0
100
AcDbLine
 10
98.12965930074148
 20
-76.23352491902345
 30
-1.9999999999999991
 11
98.12965930074148
 21
-76.23352491902345
 31
8.881784197001252e-16
  0
LINE
  5
145
330
17
100
AcDbEntity
  8
0
100
AcDbLine
 10
98.12965930074148
 20
-76.23352491902345
 30
-2.0
 11
97.52057795995647
 21
-79.4230518169127
 31
-2.0
  0
LINE
  5
146
330
17
100
AcDbEntity
  8
0
100
AcDbLine
 10
97.52057795995647
 20
-79.4230518169127
 30
-2.0
 11
97.52057795995647
 21
-79.4230518169127
 31
0.0
  0
LINE
  5
147
330
17
100
AcDbEntity
  8
0
100
AcDbLine
 10
97.52057795995646
 20
-79.42305181691268
 30
-2.0
 11
83.64791246102146
 21
-90.78537547767365
 31
-2.0
  0
LINE
  5
148
330
17
100
AcDbEntity
  8
0
100
AcDbLine
 10
83.64791246102148
 20
-90.78537547767368
 30
-2.0
 11
83.64791246102148
 21
-90.78537547767368
 31
0.0
  0
LINE
  5
149
330
17
100
AcDbEntity
  8
0
100
AcDbLine
 10
83.64791246102149
 20
-90.78537547767368
 30
-2.0
 11
79.9885489930559
 21
-91.66422136736799
 31
-2.0
  0
LINE
  5
14A
330
17
100
AcDbEntity
  8
0
100
AcDbLine
 10
79.9885489930559
 20
-91.66422136736797
 30
-2.0
 11
79.9885489930559
 21
-91.66422136736797
 31
0.0
  0
LINE
  5
14B
330
17
100
AcDbEntity
  8
0
100
AcDbLine
 10
79.9885489930559
 20
-91.66422136736799
 30
-1.9999999999999996
 11
78.79222432335379
 21
-92.21982686599283
 31
-1.9999999999999996
  0
LINE
  5
14C
330
17
100
AcDbEntity
  8
0
100
AcDbLine
 10
78.79222432335379
 20
-92.21982686599281
 30
-2.0
 11
78.79222432335379
 21
-92.21982686599281
 31
0.0
  0
LINE
  5
14D
330
17
100
AcDbEntity
  8
0
100
AcDbLine
 10
64.83878747568956
 20
-104.42722929682002
 30
-2.0
 11
78.7922243233538
 21
-92.21982686599283
 31
-2.0
  0
LINE
  5
14E
330
17
100
AcDbEntity
  8
0
100
AcDbLine
 10
64.83878747568954
 20
-104.42722929682
 30
-2.0
 11
64.83878747568954
 21
-104.42722929682
 31
0.0
  0
LINE
  5
14F
330
17
100
AcDbEntity
  8
0
100
AcDbLine
 10
60.02776880694815
 20
-104.77009357936429
 30
-2.0
 11
64.83878747568954
 21
-104.42722929682002
 31
-2.0
  0
LINE
  5
150
330
17
100
AcDbEntity
  8
0
100
AcDbLine
 10
60.02776880694815
 20
-104.77009357936427
 30
-2.0
 11
60.02776880694815
 21
-104.77009357936427
 31
0.0
  0
LINE
  5
151
330
17
100
AcDbEntity
  8
0
100
AcDbLine
 10
54.232503974280746
 20
-101.27463756947175
 30
-2.0000000000000018
 11
60.027768806948146
 21
-104.77009357936429
 31
-2.0000000000000018
  0
LINE
  5
152
330
17
100
AcDbEntity
  8
0
100
AcDbLine
 10
54.23250397428075
 20
-101.27463756947172
 30
-2.0
 11
54.23250397428075
 21
-101.27463756947172
 31
0.0
  0
LINE
  5
153
330
17
100
AcDbEntity
  8
0
100
AcDbLine
 10
52.82252715481197
 20
-99.3339709668713
 30
-2.0
 11
54.23250397428075
 21
-101.27463756947174
 31
-2.0
  0
LINE
  5
154
330
17
100
AcDbEntity
  8
0
100
AcDbLine
 10
52.82252715481197
 20
-99.3339709668713
 30
-2.0
 11
52.82252715481197
 21
-99.3339709668713
 31
0.0
  0
ARC
  5
155
330
17
100
AcDbEntity
  8
0
100
AcDbCircle
 10
52.14849438485116
 20
-95.13776079279529
 30
-2.0
 40
4.25
100
AcDbArc
 50
-80.87459070499801
 51
124.9742373656317
  0
LINE
  5
156
330
17
100
AcDbEntity
  8
0
100
AcDbLine
 10
49.71236016143999
 20
-91.65526886236317
 30
-2.0
 11
49.71236016143999
 21
-91.65526886236317
 31
0.0
  0
LINE
  5
157
330
17
100
AcDbEntity
  8
0
100
AcDbLine
 10
49.712360161439996
 20
-91.65526886236319
 30
-2.0
 11
50.25135716468949
 21
-89.91243845463023
 31
-2.0
  0
LINE
  5
158
330
17
100
AcDbEntity
  8
0
100
AcDbLine
 10
50.2513571646895
 20
-89.91243845463025
 30
-2.0
 11
50.2513571646895
 21
-89.91243845463025
 31
0.0
  0
LINE
  5
159
330
17
100
AcDbEntity
  8
0
100
AcDbLine
 10
40.210664278203126
 20
-78.76111927734206
 30
-2.0
 11
50.251357164689495
 21
-89.91243845463026
 31
-2.0
  0
LINE
  5
15A
330
17
100
AcDbEntity
  8
0
100
AcDbLine
 10
40.21066427820314
 20
-78.76111927734205
 30
-2.0
 11
40.21066427820314
 21
-78.76111927734205
 31
0.0
  0
LINE
  5
15B
330
17
100
AcDbEntity
  8
0
100
AcDbLine
 10
26.838867609986565
 20
-68.44202883647449
 30
-2.0
 11
40.21066427820315
 21
-78.76111927734206
 31
-2.0
  0
LINE
  5
15C
330
17
100
AcDbEntity
  8
0
100
AcDbLine
 10
26.83886760998656
 20
-68.44202883647449
 30
-2.0
 11
26.83886760998656
 21
-68.44202883647449
 31
0.0
  0
LINE
  5
15D
330
17
100
AcDbEntity
  8
0
100
AcDbLine
 10
5.885030422105668
 20
-63.18823865284998
 30
-2.0
 11
26.838867609986565
 21
-68.44202883647448
 31
-2.0
  0
LINE
  5
15E
330
17
100
AcDbEntity
  8
0
100
AcDbLine
 10
5.885030422105664
 20
-63.188238652849996
 30
-2.0
 11
5.885030422105664
 21
-63.188238652849996
 31
0.0
  0
LINE
  5
15F
330
17
100
AcDbEntity
  8
0
100
AcDbLine
 10
5.885030422105663
 20
-63.18823865285001
 30
-2.0
 11
2.7720451673257216
 21
-63.18823865285001
 31
-2.0
  0
LINE
  5
160
330
17
100
AcDbEntity
  8
0
100
AcDbLine
 10
2.7720451673257216
 20
-63.18823865285001
 30
-2.0
 11
2.7720451673257216
 21
-63.18823865285001
 31
0.0
  0
ARC
  5
161
330
17
100
AcDbEntity
  8
0
100
AcDbCircle
 10
-1.4287652517031353
 20
-63.83298032466796
 30
-2.0
 40
4.25
100
AcDbArc
 50
8.7256843031916
 51
171.2743156968084
  0
LINE
  5
162
330
17
100
AcDbEntity
  8
0
100
AcDbLine
 10
-5.629575670731992
 20
-63.18823865285001
 30
-2.0
 11
-5.629575670731992
 21
-63.18823865285001
 31
0.0
  0
LINE
  5
163
330
17
100
AcDbEntity
  8
0
100
AcDbLine
 10
-5.629575670731992
 20
-63.18823865285001
 30
-2.0
 11
-13.112437686812035
 21
-63.18823865285001
 31
-2.0
  0
LINE
  5
164
330
17
100
AcDbEntity
  8
0
100
AcDbLine
 10
-13.112437686812033
 20
-63.18823865285001
 30
-2.0
 11
-13.112437686812033
 21
-63.18823865285001
 31
0.0
  0
LINE
  5
165
330
17
100
AcDbEntity
  8
0
100
AcDbLine
 10
-15.163245834013523
 20
-47.7673022723273
 30
-2.0
 11
-13.112437686812033
 21
-63.18823865285002
 31
-2.0
  0
LINE
  5
166
330
17
100
AcDbEntity
  8
0
100
AcDbLine
 10
-15.163245834013521
 20
-47.7673022723273
 30
-2.0
 11
-15.163245834013521
 21
-47.7673022723273
 31
0.0
  0
LINE
  5
167
330
17
100
AcDbEntity
  8
0
100
AcDbLine
 10
-16.018674592933188
 20
-46.44732623165212
 30
-2.0
 11
-15.163245834013525
 21
-47.767302272327306
 31
-2.0
  0
LINE
  5
168
330
17
100
AcDbEntity
  8
0
100
AcDbLine
 10
-16.018674592933184
 20
-46.44732623165211
 30
-2.0
 11
-16.018674592933184
 21
-46.44732623165211
 31
0.0
  0
LINE
  5
169
330
17
100
AcDbEntity
  8
0
100
AcDbLine
 10
-53.573905800497045
 20
-46.44732623165211
 30
-2.0
 11
-16.018674592933184
 21
-46.44732623165211
 31
-2.0
  0
LINE
  5
16A
330
17
100
AcDbEntity
  8
0
100
AcDbLine
 10
-53.573905800497045
 20
-46.44732623165211
 30
-2.0
 11
-53.573905800497045
 21
-46.44732623165211
 31
0.0
  0
LINE
  5
16B
330
17
100
AcDbEntity
  8
0
100
AcDbLine
 10
-55.95797574697091
 20
-43.59588814892886
 30
-2.0
 11
-53.57390580049705
 21
-46.44732623165212
 31
-2.0
  0
LINE
  5
16C
330
17
100
AcDbEntity
  8
0
100
AcDbLine
 10
-55.95797574697091
 20
-43.59588814892886
 30
-2.0
 11
-55.95797574697091
 21
-43.59588814892886
 31
0.0
  0
LINE
  5
16D
330
17
100
AcDbEntity
  8
0
100
AcDbLine
 10
-55.95797574697091
 20
-43.59588814892886
 30
-2.0000000000000004
 11
-57.45908720904037
 21
-41.41720878600217
 31
-2.0000000000000004
  0
LINE
  5
16E
330
17
100
AcDbEntity
  8
0
100
AcDbLine
 10
-57.459087209040376
 20
-41.41720878600218
 30
-2.0
 11
-57.459087209040376
 21
-41.41720878600218
 31
0.0
  0
LINE
  5
16F
330
17
100
AcDbEntity
  8
0
100
AcDbLine
 10
-57.11207300671914
 20
-37.297358484427235
 30
-2.0
 11
-57.45908720904039
 21
-41.41720878600218
 31
-2.0
  0
LINE
  5
170
330
17
100
AcDbEntity
  8
0
100
AcDbLine
 10
-57.11207300671914
 20
-37.29735848442723
 30
-2.000000000000001
 11
-57.11207300671914
 21
-37.29735848442723
 31
-8.881784197001252e-16
  0
ARC
  5
171
330
17
100
AcDbEntity
  8
0
100
AcDbCircle
 10
-55.59666774605499
 20
-33.32671031366827
 30
-2.0
 40
4.25
100
AcDbArc
 50
-110.88944801126127
 51
101.26015220027061
  0
LINE
  5
172
330
17
100
AcDbEntity
  8
0
100
AcDbLine
 10
-56.426540186485084
 20
-29.158519851055676
 30
-2.0000000000000018
 11
-56.426540186485084
 21
-29.158519851055676
 31
-1.7763568394002505e-15
  0
LINE
  5
173
330
17
100
AcDbEntity
  8
0
100
AcDbLine
 10
-55.89254868709367
 20
-22.818822440718744
 30
-2.0
 11
-56.426540186485084
 21
-29.15851985105568
 31
-2.0
  0
LINE
  5
174
330
17
100
AcDbEntity
  8
0
100
AcDbLine
 10
-55.89254868709368
 20
-22.818822440718744
 30
-2.0
 11
-55.89254868709368
 21
-22.818822440718744
 31
0.0
  0
LINE
  5
175
330
17
100
AcDbEntity
  8
0
100
AcDbLine
 10
-55.56001600358323
 20
-15.05
 30
-2.0
 11
-55.89254868709371
 21
-22.81882244071874
 31
-2.0
  0
LINE
  5
176
330
17
100
AcDbEntity
  8
0
100
AcDbLine
 10
-55.56001600358322
 20
-15.05
 30
-2.0
 11
-55.56001600358322
 21
-15.05
 31
0.0
  0
LINE
  5
177
330
17
100
AcDbEntity
  8
0
100
AcDbLine
 10
-55.56001600358322
 20
-15.050000000000002
 30
-2.0
 11
-55.56001600358322
 21
3.0500000000000007
 31
-2.0
  0
LINE
  5
178
330
17
100
AcDbEntity
  8
0
100
AcDbLine
 10
-55.56001600358322
 20
3.0500000000000007
 30
-2.0
 11
-55.56001600358322
 21
3.0500000000000007
 31
0.0
  0
LINE
  5
179
330
17
100
AcDbEntity
  8
0
100
AcDbLine
 10
-55.892548687093694
 20
10.81882244071874
 30
-2.0
 11
-55.560016003583215
 21
3.0500000000000016
 31
-2.0
  0
LINE
  5
17A
330
17
100
AcDbEntity
  8
0
100
AcDbLine
 10
-55.89254868709368
 20
10.818822440718742
 30
-2.0
 11
-55.89254868709368
 21
10.818822440718742
 31
0.0
  0
LINE
  5
17B
330
17
100
AcDbEntity
  8
0
100
AcDbLine
 10
-55.89254868709598
 20
10.818822440718549
 30
-2.0
 11
-57.46779020082898
 21
29.5205331545871
 31
-2.0
  0
LINE
  5
17C
330
17
100
AcDbEntity
  8
0
100
AcDbLine
 10
-57.467790200828986
 20
29.5205331545871
 30
-2.0
 11
-57.467790200828986
 21
29.5205331545871
 31
0.0
  0
LINE
  5
17D
330
17
100
AcDbEntity
  8
0
100
AcDbLine
 10
-58.17600622679953
 20
35.153084129626464
 30
-2.0
 11
-57.467790200828986
 21
29.5205331545871
 31
-2.0
  0
LINE
  5
17E
330
17
100
AcDbEntity
  8
0
100
AcDbLine
 10
-58.17600622679953
 20
35.153084129626464
 30
-2.0
 11
-58.17600622679953
 21
35.153084129626464
 31
0.0
  0
LINE
  5
17F
330
17
100
AcDbEntity
  8
0
100
AcDbLine
 10
-58.31320953401314
 20
38.95362170148091
 30
-2.0
 11
-58.17600622679954
 21
35.153084129626464
 31
-2.0
  0
LINE
  5
180
330
17
100
AcDbEntity
  8
0
100
AcDbLine
 10
-58.31320953401313
 20
38.95362170148091
 30
-2.0
 11
-58.31320953401313
 21
38.95362170148091
 31
0.0
  0
LINE
  5
181
330
17
100
AcDbEntity
  8
0
100
AcDbLine
 10
-58.313209534013126
 20
38.95362170148091
 30
-2.0
 11
-58.51897217723644
 21
43.04276150340918
 31
-2.0
  0
LINE
  5
182
330
17
100
AcDbEntity
  8
0
100
AcDbLine
 10
-58.51897217723645
 20
43.04276150340918
 30
-2.0
 11
-58.51897217723645
 21
43.04276150340918
 31
0.0
  0
ARC
  5
183
330
17
100
AcDbEntity
  8
0
100
AcDbCircle
 10
-56.515960285633994
 20
46.791153606978284
 30
-2.0
 40
4.25
100
AcDbArc
 50
-118.11851511509747
 51
123.87982256756128
  0
LINE
  5
184
330
17
100
AcDbEntity
  8
0
100
AcDbLine
 10
-58.885134579768945
 20
50.3195403720609
 30
-2.0
 11
-58.885134579768945
 21
50.3195403720609
 31
0.0
  0
LINE
  5
185
330
17
100
AcDbEntity
  8
0
100
AcDbLine
 10
-58.88513457976894
 20
50.3195403720609
 30
-2.0
 11
-58.99623831599099
 21
52.52751506956446
 31
-2.0
  0
LINE
  5
186
330
17
100
AcDbEntity
  8
0
100
AcDbLine
 10
-58.99623831599099
 20
52.52751506956445
 30
-2.0
 11
-58.99623831599099
 21
52.52751506956445
 31
0.0
  0
LINE
  5
187
330
17
100
AcDbEntity
  8
0
100
AcDbLine
 10
-54.763046361305555
 20
57.188238652849996
 30
-2.0
 11
-58.996238315991015
 21
52.52751506956443
 31
-2.0
  0
LINE
  5
188
330
17
100
AcDbEntity
  8
0
100
AcDbLine
 10
-54.763046361305555
 20
57.188238652849996
 30
-2.0
 11
-54.763046361305555
 21
57.188238652849996
 31
0.0
  0
LINE
  5
189
330
17
100
AcDbEntity
  8
0
100
AcDbLine
 10
-15.925886205609348
 20
57.18823865284999
 30
-2.0
 11
-54.76304636130557
 21
57.18823865284999
 31
-2.0
  0
LINE
  5
18A
330
17
100
AcDbEntity
  8
0
100
AcDbLine
 10
-15.925886205609348
 20
57.188238652849996
 30
-2.0
 11
-15.925886205609348
 21
57.188238652849996
 31
0.0
  0
LINE
  5
18B
330
17
100
AcDbEntity
  8
0
100
AcDbLine
 10
-11.501635481296502
 20
63.188238652849996
 30
-2.0
 11
-15.925886205609352
 21
57.18823865284999
 31
-2.0
  0
LINE
  5
18C
330
17
100
AcDbEntity
  8
0
100
AcDbLine
 10
-11.501635481296503
 20
63.188238652849996
 30
-2.0
 11
-11.501635481296503
 21
63.188238652849996
 31
0.0
  0
LINE
  5
18D
330
17
100
AcDbEntity
  8
0
100
AcDbLine
 10
-5.573956222538387
 20
63.18823865285
 30
-2.0
 11
-11.501635481296503
 21
63.18823865285
 31
-2.0
  0
LINE
  5
18E
330
17
100
AcDbEntity
  8
0
100
AcDbLine
 10
-5.573956222538387
 20
63.18823865285
 30
-2.0
 11
-5.573956222538387
 21
63.18823865285
 31
0.0
  0
ARC
  5
18F
330
17
100
AcDbEntity
  8
0
100
AcDbCircle
 10
-1.525822239169298
 20
64.48249954335559
 30
-2.0
 40
4.25
100
AcDbArc
 50
-162.26999142069303
 51
-17.730008579306997
  0
LINE
  5
190
330
17
100
AcDbEntity
  8
0
100
AcDbLine
 10
2.5223117441997913
 20
63.18823865285
 30
-2.0
 11
2.5223117441997913
 21
63.18823865285
 31
0.0
  0
LINE
  5
191
330
17
100
AcDbEntity
  8
0
100
AcDbLine
 10
5.885030422105665
 20
63.18823865285
 30
-2.0
 11
2.5223117441997913
 21
63.18823865285
 31
-2.0
  0
LINE
  5
192
330
17
100
AcDbEntity
  8
0
100
AcDbLine
 10
5.885030422105664
 20
63.188238652849996
 30
-2.0
 11
5.885030422105664
 21
63.188238652849996
 31
0.0
  0
LINE
  5
193
330
17
100
AcDbEntity
  8
0
100
AcDbLine
 10
5.885030422105666
 20
63.188238652849996
 30
-2.0
 11
10.107090496762499
 21
66.00823865285
 31
-2.0
  0
LINE
  5
194
330
17
100
AcDbEntity
  8
0
100
AcDbLine
 10
10.107090496762494
 20
66.00823865285
 30
-2.0
 11
10.107090496762494
 21
66.00823865285
 31
0.0
  0
LINE
  5
195
330
17
100
AcDbEntity
  8
0
100
AcDbLine
 10
26.927590213907617
 20
66.00823865285
 30
-2.0
 11
10.107090496762488
 21
66.00823865285
 31
-2.0
  0
LINE
  5
196
330
17
100
AcDbEntity
  8
0
100
AcDbLine
 10
26.927590213907614
 20
66.00823865285
 30
-2.0
 11
26.927590213907614
 21
66.00823865285
 31
0.0
  0
LINE
  5
197
330
17
100
AcDbEntity
  8
0
100
AcDbLine
 10
26.927590213907607
 20
66.00823865285
 30
-2.0
 11
28.727569615906013
 21
63.18823865284999
 31
-2.0
  0
LINE
  5
198
330
17
100
AcDbEntity
  8
0
100
AcDbLine
 10
28.727569615906017
 20
63.188238652849996
 30
-2.0
 11
28.727569615906017
 21
63.188238652849996
 31
0.0
  0
LINE
  5
199
330
17
100
AcDbEntity
  8
0
100
AcDbLine
 10
28.727569615906017
 20
63.18823865284999
 30
-2.0
 11
63.47634062701832
 21
63.18823865284999
 31
-2.0
  0
LINE
  5
19A
330
17
100
AcDbEntity
  8
0
100
AcDbLine
 10
63.47634062701831
 20
63.188238652849996
 30
-2.0
 11
63.47634062701831
 21
63.188238652849996
 31
0.0
  0
LINE
  5
19B
330
17
100
AcDbEntity
  8
0
100
AcDbLine
 10
63.4763406270183
 20
63.18823865284999
 30
-2.0
 11
85.67031606981948
 21
59.03538997642098
 31
-2.0
  0
LINE
  5
19C
330
17
100
AcDbEntity
  8
0
100
AcDbLine
 10
85.67031606981949
 20
59.03538997642099
 30
-2.0
 11
85.67031606981949
 21
59.03538997642099
 31
0.0
  0
LINE
  5
19D
330
17
100
AcDbEntity
  8
0
100
AcDbLine
 10
90.67031606981949
 20
53.03538997642099
 30
-2.0
 11
85.67031606981949
 21
59.035389976420994
 31
-2.0
  0
LINE
  5
19E
330
17
100
AcDbEntity
  8
0
100
AcDbLine
 10
90.67031606981949
 20
53.03538997642099
 30
-2.0
 11
90.67031606981949
 21
53.03538997642099
 31
0.0
  0
LINE
  5
19F
330
17
100
AcDbEntity
  8
0
100
AcDbLine
 10
91.73222439770886
 20
49.35682504761505
 30
-2.0
 11
90.67031606981949
 21
53.03538997642099
 31
-2.0
  0
LINE
  5
1A0
330
17
100
AcDbEntity
  8
0
100
AcDbLine
 10
91.73222439770885
 20
49.35682504761505
 30
-2.0
 11
91.73222439770885
 21
49.35682504761505
 31
0.0
  0
ARC
  5
1A1
330
17
100
AcDbEntity
  8
0
100
AcDbCircle
 10
92.9703126227061
 20
45.29115935216945
 30
-2.0
 40
4.25
100
AcDbArc
 50
-253.06330783642892
 51
-74.73251923785796
  0
LINE
  5
1A2
330
17
100
AcDbEntity
  8
0
100
AcDbLine
 10
94.08944623481264
 20
41.19115447921462
 30
-2.0
 11
94.08944623481264
 21
41.19115447921462
 31
0.0
  0
LINE
  5
1A3
330
17
100
AcDbEntity
  8
0
100
AcDbLine
 10
95.17030917559275
 20
37.44692872791792
 30
-2.0
 11
94.08944623481264
 21
41.19115447921462
 31
-2.0
  0
LINE
  5
1A4
330
17
100
AcDbEntity
  8
0
100
AcDbLine
 10
95.17030917559275
 20
37.44692872791792
 30
-2.0
 11
95.17030917559275
 21
37.44692872791792
 31
0.0
  0
LINE
  5
1A5
330
17
100
AcDbEntity
  8
0
100
AcDbLine
 10
96.28022730493697
 20
32.08776079279529
 30
-2.0
 11
95.17030917559273
 21
37.44692872791792
 31
-2.0
  0
LINE
  5
1A6
330
17
100
AcDbEntity
  8
0
100
AcDbLine
 10
96.28022730493699
 20
32.08776079279529
 30
-2.0
 11
96.28022730493699
 21
32.08776079279529
 31
0.0
  0
LINE
  5
1A7
330
17
100
AcDbEntity
  8
0
100
AcDbLine
 10
98.60959500412504
 20
14.701094889393117
 30
-2.0
 11
96.28022730493699
 21
32.08776079279529
 31
-2.0
  0
LINE
  5
1A8
330
17
100
AcDbEntity
  8
0
100
AcDbLine
 10
98.60959500412504
 20
14.701094889393117
 30
-2.0
 11
98.60959500412504
 21
14.701094889393117
 31
0.0
  0
LINE
  5
1A9
330
17
100
AcDbEntity
  8
0
100
AcDbLine
 10
98.98816739370497
 20
8.95
 30
-2.0
 11
98.60959500412504
 21
14.701094889393119
 31
-2.0
  0
LINE
  5
1AA
330
17
100
AcDbEntity
  8
0
100
AcDbLine
 10
98.98816739370497
 20
8.95
 30
-2.0
 11
98.98816739370497
 21
8.95
 31
0.0
  0
LINE
  5
1AB
330
17
100
AcDbEntity
  8
0
100
AcDbLine
 10
98.98816739370497
 20
8.950000000000001
 30
-2.0
 11
98.98816739370497
 21
-7.4653970791914945
 31
-2.0
  0
LINE
  5
1AC
330
17
100
AcDbEntity
  8
0
100
AcDbLine
 10
98.98816739370497
 20
-7.465397079191495
 30
-2.0
 11
98.98816739370497
 21
-7.465397079191495
 31
0.0
  0
ARC
  5
1AD
330
17
100
AcDbEntity
  8
0
100
AcDbCircle
 10
97.49491115453101
 20
-11.444427841094203
 30
-2.0
 40
4.25
100
AcDbArc
 50
-290.5701792259985
 51
-80.36894886159837
  0
LINE
  5
1AE
330
17
100
AcDbEntity
  8
0
100
AcDbLine
 10
98.20594923360474
 20
-15.634526270738444
 30
-2.0
 11
98.20594923360474
 21
-15.634526270738444
 31
0.0
  0
LINE
  5
1AF
330
17
100
AcDbEntity
  8
0
100
AcDbLine
 10
96.28022730493701
 20
-20.087760792795294
 30
-2.0
 11
98.20594923360476
 21
-15.63452627073845
 31
-2.0
  0
LINE
  5
1B0
330
17
100
AcDbEntity
  8
0
100
AcDbLine
 10
96.28022730493699
 20
-20.087760792795283
 30
-2.0
 11
96.28022730493699
 21
-20.087760792795283
 31
0.0
  0
LINE
  5
1B1
330
17
100
AcDbEntity
  8
0
100
AcDbLine
 10
96.28022730493697
 20
-20.087760792795276
 30
-2.0
 11
82.19762823707212
 21
-40.72327655405402
 31
-2.0
  0
ENDSEC
  0
SECTION
  2
OBJECTS
  0
DICTIONARY
  5
A
330
0
100
AcDbDictionary
280
0
281
1
  3
ACAD_COLOR
350
B
  3
ACAD_GROUP
350
C
  3
ACAD_LAYOUT
350
D
  3
ACAD_MATERIAL
350
E
  3
ACAD_MLEADERSTYLE
350
F
  3
ACAD_MLINESTYLE
350
10
  3
ACAD_PLOTSETTINGS
350
11
  3
ACAD_PLOTSTYLENAME
350
12
  3
ACAD_SCALELIST
350
14
  3
ACAD_TABLESTYLE
350
15
  3
ACAD_VISUALSTYLE
350
16
  3
EZDXF_META
350
2D
  0
DICTIONARY
  5
B
330
A
100
AcDbDictionary
280
0
281
1
  0
DICTIONARY
  5
C
330
A
100
AcDbDictionary
280
0
281
1
  0
DICTIONARY
  5
D
330
A
100
AcDbDictionary
280
0
281
1
  3
Model
350
1A
  3
Layout1
350
1E
  0
DICTIONARY
  5
E
330
A
100
AcDbDictionary
280
0
281
1
  3
ByBlock
350
1F
  3
ByLayer
350
20
  3
Global
350
21
  0
DICTIONARY
  5
F
330
A
100
AcDbDictionary
280
0
281
1
  3
Standard
350
2C
  0
DICTIONARY
  5
10
330
A
100
AcDbDictionary
280
0
281
1
  3
Standard
350
22
  0
DICTIONARY
  5
11
330
A
100
AcDbDictionary
280
0
281
1
  0
ACDBDICTIONARYWDFLT
  5
12
330
A
100
AcDbDictionary
280
0
281
1
  3
Normal
350
13
100
AcDbDictionaryWithDefault
340
13
  0
ACDBPLACEHOLDER
  5
13
330
12
  0
DICTIONARY
  5
14
330
A
100
AcDbDictionary
280
0
281
1
  0
DICTIONARY
  5
15
330
A
100
AcDbDictionary
280
0
281
1
  0
DICTIONARY
  5
16
330
A
100
AcDbDictionary
280
0
281
1
  0
LAYOUT
  5
1A
330
D
100
AcDbPlotSettings
  1

  2
Adobe PDF
  4
A3
  6

 40
7.5
 41
20.0
 42
7.5
 43
20.0
 44
420.0
 45
297.0
 46
0.0
 47
0.0
 48
0.0
 49
0.0
140
0.0
141
0.0
142
1.0
143
1.0
 70
1024
 72
1
 73
0
 74
5
  7

 75
16
 76
0
 77
2
 78
300
147
1.0
148
0.0
149
0.0
100
AcDbLayout
  1
Model
 70
1
 71
0
 10
0.0
 20
0.0
 11
420.0
 21
297.0
 12
0.0
 22
0.0
 32
0.0
 14
1e+20
 24
1e+20
 34
1e+20
 15
-1e+20
 25
-1e+20
 35
-1e+20
146
0.0
 13
0.0
 23
0.0
 33
0.0
 16
1.0
 26
0.0
 36
0.0
 17
0.0
 27
1.0
 37
0.0
 76
1
330
17
  0
LAYOUT
  5
1E
330
D
100
AcDbPlotSettings
  1

  2
Adobe PDF
  4
A3
  6

 40
7.5
 41
20.0
 42
7.5
 43
20.0
 44
420.0
 45
297.0
 46
0.0
 47
0.0
 48
0.0
 49
0.0
140
0.0
141
0.0
142
1.0
143
1.0
 70
0
 72
1
 73
0
 74
5
  7

 75
16
 76
0
 77
2
 78
300
147
1.0
148
0.0
149
0.0
100
AcDbLayout
  1
Layout1
 70
1
 71
1
 10
0.0
 20
0.0
 11
420.0
 21
297.0
 12
0.0
 22
0.0
 32
0.0
 14
1e+20
 24
1e+20
 34
1e+20
 15
-1e+20
 25
-1e+20
 35
-1e+20
146
0.0
 13
0.0
 23
0.0
 33
0.0
 16
1.0
 26
0.0
 36
0.0
 17
0.0
 27
1.0
 37
0.0
 76
1
330
1B
  0
MATERIAL
  5
1F
102
{ACAD_REACTORS
330
E
102
}
330
E
100
AcDbMaterial
  1
ByBlock
  2

 70
0
 40
1.0
 71
1
 41
1.0
 91
-1023410177
 42
1.0
 72
1
  3

 73
1
 74
1
 75
1
 44
0.5
 73
0
 45
1.0
 46
1.0
 77
1
  4

 78
1
 79
1
170
1
 48
1.0
171
1
  6

172
1
173
1
174
1
140
1.0
141
1.0
175
1
  7

176
1
177
1
178
1
143
1.0
179
1
  8

270
1
271
1
272
1
145
1.0
146
1.0
273
1
  9

274
1
275
1
276
1
 42
1.0
 72
1
  3

 73
1
 74
1
 75
1
 94
63
  0
MATERIAL
  5
20
102
{ACAD_REACTORS
330
E
102
}
330
E
100
AcDbMaterial
  1
ByLayer
  2

 70
0
 40
1.0
 71
1
 41
1.0
 91
-1023410177
 42
1.0
 72
1
  3

 73
1
 74
1
 75
1
 44
0.5
 73
0
 45
1.0
 46
1.0
 77
1
  4

 78
1
 79
1
170
1
 48
1.0
171
1
  6

172
1
173
1
174
1
140
1.0
141
1.0
175
1
  7

176
1
177
1
178
1
143
1.0
179
1
  8

270
1
271
1
272
1
145
1.0
146
1.0
273
1
  9

274
1
275
1
276
1
 42
1.0
 72
1
  3

 73
1
 74
1
 75
1
 94
63
  0
MATERIAL
  5
21
102
{ACAD_REACTORS
330
E
102
}
330
E
100
AcDbMaterial
  1
Global
  2

 70
0
 40
1.0
 71
1
 41
1.0
 91
-1023410177
 42
1.0
 72
1
  3

 73
1
 74
1
 75
1
 44
0.5
 73
0
 45
1.0
 46
1.0
 77
1
  4

 78
1
 79
1
170
1
 48
1.0
171
1
  6

172
1
173
1
174
1
140
1.0
141
1.0
175
1
  7

176
1
177
1
178
1
143
1.0
179
1
  8

270
1
271
1
272
1
145
1.0
146
1.0
273
1
  9

274
1
275
1
276
1
 42
1.0
 72
1
  3

 73
1
 74
1
 75
1
 94
63
  0
MLINESTYLE
  5
22
102
{ACAD_REACTORS
330
10
102
}
330
10
100
AcDbMlineStyle
  2
Standard
 70
0
  3

 62
256
 51
90.0
 52
90.0
 71
2
 49
0.5
 62
256
  6
BYLAYER
 49
-0.5
 62
256
  6
BYLAYER
  0
MLEADERSTYLE
  5
2C
102
{ACAD_REACTORS
330
F
102
}
330
F
100
AcDbMLeaderStyle
179
2
170
2
171
1
172
0
 90
2
 40
0.0
 41
0.0
173
1
 91
-1056964608
 92
-2
290
1
 42
2.0
291
1
 43
8.0
  3
Standard
 44
4.0
300

342
29
174
1
175
1
176
0
178
1
 93
-1056964608
 45
4.0
292
0
297
0
 46
4.0
 94
-1056964608
 47
1.0
 49
1.0
140
1.0
294
1
141
0.0
177
0
142
1.0
295
0
296
0
143
3.75
271
0
272
9
273
9
  0
DICTIONARY
  5
2D
330
A
100
AcDbDictionary
281
1
  3
CREATED_BY_EZDXF
350
2E
  3
WRITTEN_BY_EZDXF
350
1B5
  0
DICTIONARYVAR
  5
2E
330
2D
100
DictionaryVariables
280
0
  1
1.0.3 @ 2023-07-22T19:44:44.359315+00:00
  0
DICTIONARYVAR
  5
1B5
330
2D
100
DictionaryVariables
280
0
  1
1.0.3 @ 2023-07-22T19:44:44.477231+00:00
  0
ENDSEC
  0
EOF
